<?xml version="1.0" encoding="UTF-8" standalone="no"?>
<svg
   width="1312"
   height="140"
   viewBox="0 0 1312 140"
   fill="none"
   version="1.1"
   id="svg8"
   sodipodi:docname="Accordion.svg"
   inkscape:version="1.4 (86a8ad7, 2024-10-11)"
   xmlns:inkscape="http://www.inkscape.org/namespaces/inkscape"
   xmlns:sodipodi="http://sodipodi.sourceforge.net/DTD/sodipodi-0.dtd"
   xmlns="http://www.w3.org/2000/svg"
   xmlns:svg="http://www.w3.org/2000/svg">
  <sodipodi:namedview
     id="namedview8"
     pagecolor="#ffffff"
     bordercolor="#000000"
     borderopacity="0.25"
     inkscape:showpageshadow="2"
     inkscape:pageopacity="0.0"
     inkscape:pagecheckerboard="0"
     inkscape:deskcolor="#d1d1d1"
     inkscape:zoom="1.351372"
     inkscape:cx="273.05584"
     inkscape:cy="69.928934"
     inkscape:window-width="1920"
     inkscape:window-height="991"
     inkscape:window-x="2391"
     inkscape:window-y="655"
     inkscape:window-maximized="1"
     inkscape:current-layer="svg8" />
  <path
     d="m 8,0.5 h 1296 c 4.14,0 7.5,3.35786 7.5,7.5 v 124 c 0,4.142 -3.36,7.5 -7.5,7.5 H 8 c -4.14213,0 -7.5,-3.358 -7.5,-7.5 V 8 C 0.5,3.85786 3.85786,0.5 8,0.5 Z"
     fill="url(#paint0_linear_4066_3689)"
     id="path1"
     sodipodi:nodetypes="sssssssss" />
  <path
     d="M8 0.5H1304C1308.14 0.5 1311.5 3.85786 1311.5 8V132C1311.5 136.142 1308.14 139.5 1304 139.5H8C3.85787 139.5 0.5 136.142 0.5 132V8C0.5 3.85786 3.85786 0.5 8 0.5Z"
     stroke="url(#paint1_radial_4066_3689)"
     id="path2" />
  <defs
     id="defs8">
    <linearGradient
       id="paint0_linear_4066_3689"
       x1="656"
       y1="0"
       x2="656"
       y2="140"
       gradientUnits="userSpaceOnUse">
      <stop
         stop-color="#212529"
         stop-opacity="0.8"
         id="stop5" />
      <stop
         offset="1"
         stop-color="#212529"
         stop-opacity="0.4"
         id="stop6" />
    </linearGradient>
    <radialGradient
       id="paint1_radial_4066_3689"
       cx="0"
       cy="0"
       r="1"
       gradientUnits="userSpaceOnUse"
       gradientTransform="translate(656.938) rotate(90) scale(140 4349.8)">
      <stop
         stop-color="#97FCCF"
         stop-opacity="0.3"
         id="stop7" />
      <stop
         offset="0.849599"
         stop-color="white"
         stop-opacity="0.1"
         id="stop8" />
    </radialGradient>
  </defs>
  <g
     id="g8" />
</svg>
