<svg id="4066:291" layer-name="Placeholder Logo" data-component-name="Placeholder Logo" data-variant-name="Logo=1, Alternate=False" width="120" height="48" viewBox="0 0 120 48" fill="none" xmlns="http://www.w3.org/2000/svg" class="logo" style="width: 120px; height: 48px; aspect-ratio: 5/2; position: relative; shrink: 0"> <path fill-rule="evenodd" clip-rule="evenodd" d="M30.4727 16.4874L30.6879 16.8718C30.959 17.3389 31.1022 17.8692 31.1031 18.4092V30.3248C31.0986 30.8644 30.9557 31.3938 30.6879 31.8623L30.4573 32.2467C30.194 32.7172 29.8055 33.1057 29.335 33.3691L19.0184 39.3345C18.5512 39.6055 18.021 39.7486 17.4809 39.7496H17.0504C16.5096 39.7547 15.9777 39.6111 15.5129 39.3345L5.18097 33.3844C4.72047 33.108 4.33502 32.7226 4.0586 32.2621L3.84335 31.8777C3.57236 31.4105 3.42918 30.8803 3.42822 30.3402V18.4246C3.42918 17.8846 3.57236 17.3542 3.84335 16.8871L4.0586 16.5028C4.32805 16.0369 4.71507 15.6498 5.18097 15.3804L15.4975 9.41488C15.9647 9.14391 16.4949 9.00073 17.035 8.99976H17.4809C18.021 9.00073 18.5512 9.14391 19.0184 9.41488L29.335 15.365C29.8036 15.6362 30.1951 16.0225 30.4727 16.4874ZM17.4809 12.0747H17.035L8.04072 17.2714L17.2656 22.5911L26.4906 17.2714L17.4809 12.0747ZM27.7974 30.7093L18.8031 35.906V25.2665L28.0281 19.9315V30.3249L27.7974 30.7093ZM71.1971 31.7549H68.0089V14.9285H71.1971V31.7549ZM42.4284 32.1155H45.9929V26.0049H47.5427L51.3287 32.1155H55.1367L50.9523 25.385C52.8121 24.8315 54.2069 23.5695 54.2069 21.1784V21.0899C54.2069 17.8132 51.8379 16.2855 48.0962 16.2855H42.4284V32.1155ZM45.9929 23.5695V19.0309H48.0077C49.7346 19.0309 50.7088 19.5844 50.7088 21.2006V21.2891C50.7088 22.8168 49.8011 23.5695 48.0077 23.5695H45.9929ZM60.9261 31.9978C64.0921 31.9978 66.0847 30.603 66.4611 28.1012H63.4279C63.2286 29.0753 62.4981 29.7174 61.0147 29.7174C59.2656 29.7174 58.2251 28.6104 58.1365 26.6843H66.4833V25.7987C66.4833 21.6584 63.8265 19.9094 60.8376 19.9094C57.4723 19.9094 54.8819 22.2784 54.8819 25.9315V26.1086C54.8819 29.806 57.428 31.9978 60.9261 31.9978ZM58.1808 24.7138C58.4243 23.0754 59.3985 22.1234 60.8376 22.1234C62.3652 22.1234 63.2508 22.9647 63.3615 24.7138H58.1808ZM77.313 31.9987C79.2172 31.9987 80.3902 31.1131 80.988 29.9398V31.7552H84.1762V20.176H80.988V26.973C80.988 28.6778 79.9252 29.5191 78.5752 29.5191C77.2027 29.5191 76.56 28.7663 76.56 27.1944V20.176H73.3722V27.6372C73.3722 30.6703 75.0547 31.9987 77.313 31.9987ZM89.5635 31.7543H86.3528V20.1751H89.5635V21.9463C90.1388 20.8614 91.3785 19.9094 93.1058 19.9094C94.6335 19.9094 95.7848 20.5515 96.3383 21.9242C97.2683 20.5293 98.7735 19.9094 100.235 19.9094C102.383 19.9094 104.043 21.26 104.043 24.3374V31.7543H100.855V24.6917C100.855 23.2082 100.19 22.544 99.039 22.544C97.7993 22.544 96.8033 23.3411 96.8033 24.9131V31.7543H93.615V24.6917C93.615 23.2082 92.9288 22.544 91.7993 22.544C90.5595 22.544 89.5635 23.3411 89.5635 24.9131V31.7543ZM111.456 31.9978C114.622 31.9978 116.615 30.603 116.991 28.1012H113.958C113.758 29.0753 113.028 29.7174 111.544 29.7174C109.795 29.7174 108.755 28.6104 108.666 26.6843H117.013V25.7987C117.013 21.6584 114.356 19.9094 111.367 19.9094C108.002 19.9094 105.411 22.2784 105.411 25.9315V26.1086C105.411 29.806 107.958 31.9978 111.456 31.9978ZM108.711 24.7138C108.954 23.0754 109.929 22.1234 111.367 22.1234C112.895 22.1234 113.781 22.9647 113.892 24.7138H108.711Z" fill="#96A8AE"></path> </svg>