<svg id="4066:289" layer-name="Placeholder Logo" data-component-name="Placeholder Logo" data-variant-name="Logo=1, Alternate=False" width="121" height="48" viewBox="0 0 121 48" fill="none" xmlns="http://www.w3.org/2000/svg" class="logo" style="width: 120px; height: 48px; aspect-ratio: 5/2; position: relative; shrink: 0"> <path fill-rule="evenodd" clip-rule="evenodd" d="M31.2728 16.4874L31.4881 16.8718C31.7591 17.3389 31.9023 17.8692 31.9032 18.4092V30.3248C31.8988 30.8644 31.7558 31.3938 31.4881 31.8623L31.2574 32.2467C30.9941 32.7172 30.6056 33.1057 30.1351 33.3691L19.8185 39.3345C19.3513 39.6055 18.8211 39.7486 18.281 39.7496H17.8505C17.3097 39.7547 16.7779 39.6111 16.313 39.3345L5.98107 33.3844C5.52058 33.108 5.13513 32.7226 4.85871 32.2621L4.64346 31.8777C4.37247 31.4105 4.22929 30.8803 4.22833 30.3402V18.4246C4.22929 17.8846 4.37247 17.3542 4.64346 16.8871L4.85871 16.5028C5.12816 16.0369 5.51517 15.6498 5.98107 15.3804L16.2976 9.41488C16.7648 9.14391 17.2951 9.00073 17.8351 8.99976H18.281C18.8211 9.00073 19.3513 9.14391 19.8185 9.41488L30.1351 15.365C30.6037 15.6362 30.9952 16.0225 31.2728 16.4874ZM18.281 12.0747H17.8351L8.84083 17.2714L18.0658 22.5911L27.2908 17.2714L18.281 12.0747ZM28.5976 30.7093L19.6033 35.906V25.2665L28.8282 19.9315V30.3249L28.5976 30.7093ZM71.9972 31.7549H68.809V14.9285H71.9972V31.7549ZM43.2285 32.1155H46.793V26.0049H48.3428L52.1288 32.1155H55.9368L51.7524 25.385C53.6122 24.8315 55.007 23.5695 55.007 21.1784V21.0899C55.007 17.8132 52.638 16.2855 48.8964 16.2855H43.2285V32.1155ZM46.793 23.5695V19.0309H48.8078C50.5347 19.0309 51.5089 19.5844 51.5089 21.2006V21.2891C51.5089 22.8168 50.6012 23.5695 48.8078 23.5695H46.793ZM61.7263 31.9978C64.8922 31.9978 66.8848 30.603 67.2612 28.1012H64.228C64.0288 29.0753 63.2982 29.7174 61.8148 29.7174C60.0658 29.7174 59.0252 28.6104 58.9366 26.6843H67.2834V25.7987C67.2834 21.6584 64.6266 19.9094 61.6377 19.9094C58.2724 19.9094 55.682 22.2784 55.682 25.9315V26.1086C55.682 29.806 58.2281 31.9978 61.7263 31.9978ZM58.9809 24.7138C59.2244 23.0754 60.1986 22.1234 61.6377 22.1234C63.1654 22.1234 64.051 22.9647 64.1617 24.7138H58.9809ZM78.1131 31.9987C80.0173 31.9987 81.1904 31.1131 81.7881 29.9398V31.7552H84.9764V20.176H81.7881V26.973C81.7881 28.6778 80.7253 29.5191 79.3754 29.5191C78.0029 29.5191 77.3601 28.7663 77.3601 27.1944V20.176H74.1723V27.6372C74.1723 30.6703 75.8549 31.9987 78.1131 31.9987ZM90.3636 31.7543H87.1529V20.1751H90.3636V21.9463C90.9389 20.8614 92.1786 19.9094 93.9059 19.9094C95.4336 19.9094 96.5849 20.5515 97.1384 21.9242C98.0684 20.5293 99.5736 19.9094 101.035 19.9094C103.183 19.9094 104.843 21.26 104.843 24.3374V31.7543H101.655V24.6917C101.655 23.2082 100.99 22.544 99.8391 22.544C98.5994 22.544 97.6034 23.3411 97.6034 24.9131V31.7543H94.4151V24.6917C94.4151 23.2082 93.7289 22.544 92.5994 22.544C91.3596 22.544 90.3636 23.3411 90.3636 24.9131V31.7543ZM112.256 31.9978C115.422 31.9978 117.415 30.603 117.791 28.1012H114.758C114.558 29.0753 113.828 29.7174 112.344 29.7174C110.595 29.7174 109.555 28.6104 109.467 26.6843H117.813V25.7987C117.813 21.6584 115.156 19.9094 112.167 19.9094C108.802 19.9094 106.212 22.2784 106.212 25.9315V26.1086C106.212 29.806 108.758 31.9978 112.256 31.9978ZM109.511 24.7138C109.755 23.0754 110.729 22.1234 112.167 22.1234C113.695 22.1234 114.581 22.9647 114.692 24.7138H109.511Z" fill="#96A8AE"></path> </svg>