<svg id="4066:287" layer-name="Placeholder Logo" data-component-name="Placeholder Logo" data-variant-name="Logo=1, Alternate=False" width="121" height="48" viewBox="0 0 121 48" fill="none" xmlns="http://www.w3.org/2000/svg" class="logo" style="width: 120px; height: 48px; aspect-ratio: 5/2; position: relative; shrink: 0"> <path fill-rule="evenodd" clip-rule="evenodd" d="M31.0727 16.4874L31.288 16.8718C31.559 17.3389 31.7022 17.8692 31.7031 18.4092V30.3248C31.6987 30.8644 31.5557 31.3938 31.288 31.8623L31.0574 32.2467C30.794 32.7172 30.4055 33.1057 29.9351 33.3691L19.6184 39.3345C19.1513 39.6055 18.621 39.7486 18.0809 39.7496H17.6504C17.1096 39.7547 16.5778 39.6111 16.1129 39.3345L5.781 33.3844C5.3205 33.108 4.93505 32.7226 4.65863 32.2621L4.44338 31.8777C4.17239 31.4105 4.02922 30.8803 4.02826 30.3402V18.4246C4.02922 17.8846 4.17239 17.3542 4.44338 16.8871L4.65863 16.5028C4.92809 16.0369 5.3151 15.6498 5.781 15.3804L16.0976 9.41488C16.5647 9.14391 17.095 9.00073 17.6351 8.99976H18.0809C18.621 9.00073 19.1513 9.14391 19.6184 9.41488L29.9351 15.365C30.4036 15.6362 30.7952 16.0225 31.0727 16.4874ZM18.0809 12.0747H17.6351L8.64076 17.2714L17.8657 22.5911L27.0907 17.2714L18.0809 12.0747ZM28.3975 30.7093L19.4032 35.906V25.2665L28.6281 19.9315V30.3249L28.3975 30.7093ZM71.7971 31.7549H68.6089V14.9285H71.7971V31.7549ZM43.0285 32.1155H46.593V26.0049H48.1428L51.9287 32.1155H55.7368L51.5524 25.385C53.4121 24.8315 54.8069 23.5695 54.8069 21.1784V21.0899C54.8069 17.8132 52.438 16.2855 48.6963 16.2855H43.0285V32.1155ZM46.593 23.5695V19.0309H48.6077C50.3347 19.0309 51.3088 19.5844 51.3088 21.2006V21.2891C51.3088 22.8168 50.4011 23.5695 48.6077 23.5695H46.593ZM61.5262 31.9978C64.6922 31.9978 66.6848 30.603 67.0611 28.1012H64.028C63.8287 29.0753 63.0981 29.7174 61.6148 29.7174C59.8657 29.7174 58.8251 28.6104 58.7366 26.6843H67.0833V25.7987C67.0833 21.6584 64.4265 19.9094 61.4376 19.9094C58.0724 19.9094 55.4819 22.2784 55.4819 25.9315V26.1086C55.4819 29.806 58.028 31.9978 61.5262 31.9978ZM58.7808 24.7138C59.0243 23.0754 59.9985 22.1234 61.4376 22.1234C62.9653 22.1234 63.8509 22.9647 63.9616 24.7138H58.7808ZM77.913 31.9987C79.8173 31.9987 80.9903 31.1131 81.588 29.9398V31.7552H84.7763V20.176H81.588V26.973C81.588 28.6778 80.5253 29.5191 79.1753 29.5191C77.8028 29.5191 77.16 28.7663 77.16 27.1944V20.176H73.9722V27.6372C73.9722 30.6703 75.6548 31.9987 77.913 31.9987ZM90.1635 31.7543H86.9528V20.1751H90.1635V21.9463C90.7388 20.8614 91.9785 19.9094 93.7058 19.9094C95.2335 19.9094 96.3848 20.5515 96.9383 21.9242C97.8683 20.5293 99.3735 19.9094 100.835 19.9094C102.983 19.9094 104.643 21.26 104.643 24.3374V31.7543H101.455V24.6917C101.455 23.2082 100.79 22.544 99.639 22.544C98.3993 22.544 97.4033 23.3411 97.4033 24.9131V31.7543H94.215V24.6917C94.215 23.2082 93.5288 22.544 92.3993 22.544C91.1595 22.544 90.1635 23.3411 90.1635 24.9131V31.7543ZM112.056 31.9978C115.222 31.9978 117.215 30.603 117.591 28.1012H114.558C114.358 29.0753 113.628 29.7174 112.144 29.7174C110.395 29.7174 109.355 28.6104 109.267 26.6843H117.613V25.7987C117.613 21.6584 114.956 19.9094 111.967 19.9094C108.602 19.9094 106.011 22.2784 106.011 25.9315V26.1086C106.011 29.806 108.558 31.9978 112.056 31.9978ZM109.311 24.7138C109.555 23.0754 110.529 22.1234 111.967 22.1234C113.495 22.1234 114.381 22.9647 114.492 24.7138H109.311Z" fill="#96A8AE"></path> </svg>