<?xml version="1.0" encoding="UTF-8" standalone="no"?>
<!-- Generator: Adobe Illustrator 27.5.0, SVG Export Plug-In . SVG Version: 6.00 Build 0)  -->

<svg
   version="1.1"
   id="Camada_1"
   x="0px"
   y="0px"
   viewBox="0 0 975645.88 1033965"
   xml:space="preserve"
   width="975645.88"
   height="1033965"
   xmlns="http://www.w3.org/2000/svg"
   xmlns:svg="http://www.w3.org/2000/svg"><defs
   id="defs54" />
<g
   id="g54"
   transform="translate(-357177.88,-328017.63)">
	<g
   id="g39">
		<path
   style="fill:#83165a"
   d="m 444.05,395.072 c -5.341,0 -10.668,-0.64 -15.835,-1.903 -16.596,-4.056 -30.846,-14.243 -40.124,-28.686 -6.872,-10.696 -10.504,-23.102 -10.504,-35.874 0,-18.039 7.11,-34.921 20.019,-47.536 6.719,-6.566 14.567,-11.543 23.324,-14.793 4.398,-1.632 8.995,-2.797 13.664,-3.461 3.134,-0.446 6.315,-0.673 9.456,-0.673 8.136,0 16.09,1.458 23.641,4.332 3.652,1.39 7.198,3.114 10.541,5.123 0.926,0.556 1.848,1.141 2.738,1.737 18.5,12.382 29.544,33.044 29.544,55.271 0,10.784 -2.504,21.074 -7.443,30.584 -1.76,3.39 -3.833,6.655 -6.161,9.704 -5.973,7.825 -13.739,14.336 -22.458,18.829 -7.247,3.734 -15.042,6.074 -23.169,6.953 -2.413,0.261 -4.846,0.393 -7.233,0.393 z"
   id="path1" />
		<path
   style="fill:#83165a"
   d="m 703.645,739.098 c -21.727,0 -41.868,-4.153 -59.863,-12.342 -6.344,-2.887 -12.581,-6.369 -18.538,-10.349 -2.291,-1.531 -4.567,-3.152 -6.765,-4.818 -26.103,-19.785 -47.28,-50.373 -59.63,-86.128 -15.219,-44.057 -17.077,-91.054 -16.817,-135.278 0.058,-9.898 0.228,-19.98 0.391,-29.73 0.105,-6.276 0.21,-12.554 0.289,-18.829 0.358,-28.738 0.158,-59.455 -3.701,-89.365 -1.3,-10.078 -3.165,-19.726 -5.542,-28.678 -8.524,-32.101 -23.251,-54.71 -43.827,-67.321 7.329,-1.086 14.821,-1.635 22.349,-1.635 8.964,0 18.08,0.778 27.095,2.313 3.844,0.654 7.681,1.445 11.405,2.349 12.381,3.007 24.498,7.442 36.014,13.181 14.114,7.034 27.052,15.883 38.456,26.3 2.434,2.224 4.803,4.524 7.04,6.834 8.112,8.377 15.192,17.542 21.04,27.239 12.749,21.135 21.658,46.906 27.236,78.785 1.616,9.229 2.987,19.053 4.195,30.033 1.307,11.879 2.326,24.018 3.31,35.757 2.179,25.977 4.432,52.839 9.964,78.813 6.453,30.299 17.34,68.616 44.47,96.202 1.865,1.896 3.763,3.706 5.645,5.38 6.48,5.768 13.891,10.862 22.028,15.141 14.53,7.64 30.56,12.238 46.359,13.297 2.324,0.156 4.664,0.235 6.955,0.235 8.035,0 15.702,-0.936 22.93,-2.793 -7.663,5.683 -15.1,10.835 -22.5,15.59 -22.752,14.62 -44.39,24.947 -66.151,31.57 l -0.687,0.213 c -1.878,0.565 -3.853,1.123 -6.03,1.703 -5.258,1.4 -10.609,2.586 -15.904,3.525 -1.758,0.311 -3.558,0.603 -5.351,0.868 -8.681,1.287 -17.385,1.938 -25.865,1.938 z"
   id="path2" />
		<path
   style="fill:#83165a"
   d="m 823.141,661.327 c -0.67,0 -1.336,-0.013 -2.003,-0.026 -5.049,-0.1 -10.111,-0.584 -15.048,-1.438 -10.525,-1.822 -20.628,-5.317 -30.028,-10.39 -12.839,-6.93 -24.212,-16.817 -32.889,-28.594 -12.629,-17.139 -19.304,-37.48 -19.304,-58.824 0,-15.361 3.419,-30.094 10.162,-43.79 0.424,-0.859 0.859,-1.712 1.307,-2.558 9.604,-18.157 24.336,-32.701 42.601,-42.059 11.406,-5.844 23.692,-9.37 36.517,-10.482 2.925,-0.254 5.847,-0.382 8.685,-0.382 0.2,0 1.018,0.013 1.018,0.013 17.619,0.177 34.88,5.031 49.917,14.039 10.788,6.463 20.151,14.806 27.829,24.798 13.417,17.462 20.509,38.356 20.509,60.422 0,26.62 -10.398,51.619 -29.278,70.393 -8.276,8.229 -17.827,14.878 -28.39,19.76 -11.81,5.459 -24.427,8.497 -37.503,9.029 -1.517,0.059 -2.859,0.089 -4.102,0.089 z"
   id="path3" />
		<g
   id="g38">
			<path
   style="fill:#83165a"
   d="m 795.438,552.175 -18.551,-80.58 c -18.579,9.519 -33.834,24.597 -43.587,43.034 l 49.212,100.266 z"
   id="path4" />
			<polygon
   style="fill:#f1f2f2"
   points="870.025,573.245 870.083,572.16 869.816,572.731 "
   id="polygon4" />
			<path
   style="fill:#f04e3e"
   d="m 468.511,264.323 -9.458,73.884 16.454,51.568 c 9.123,-4.701 17.056,-11.385 23.235,-19.48 L 479.42,269.624 c -3.451,-2.073 -7.099,-3.851 -10.909,-5.301 z"
   id="path5" />
			<path
   style="fill:#620c66"
   d="m 395.995,279.424 c -12.778,12.486 -20.713,29.908 -20.713,49.185 0,13.673 3.991,26.413 10.87,37.121 l 18.391,-55.003 z"
   id="path6" />
			<path
   style="fill:#2e0557"
   d="m 682.551,411.233 c -4.899,-27.991 -12.93,-55.37 -27.533,-79.578 -6.049,-10.028 -13.249,-19.278 -21.359,-27.653 l -0.17,7.272 z"
   id="path7" />
			<path
   style="fill:#f04e3e"
   d="M 594.163,369.766 551.037,257.049 c -3.826,-0.929 -7.684,-1.721 -11.562,-2.382 l -8.232,69.506 c 2.494,9.393 4.272,18.99 5.483,28.381 3.806,29.504 4.053,59.259 3.682,89.041 l 65.407,102.834 z"
   id="path8" />
			<path
   style="fill:#f68b1f"
   d="m 482.252,271.422 c -0.928,-0.621 -1.873,-1.221 -2.833,-1.798 l 19.322,100.671 c 2.401,-3.145 4.537,-6.502 6.375,-10.04 z"
   id="path9" />
			<path
   style="fill:#f68b1f"
   d="m 587.535,270.407 c -11.623,-5.793 -23.894,-10.297 -36.499,-13.358 l 43.126,112.717 z"
   id="path10" />
			<path
   style="fill:#631254"
   d="m 633.66,304.001 c -2.308,-2.383 -4.691,-4.694 -7.142,-6.932 l 6.972,14.204 z"
   id="path11" />
			<path
   style="fill:#631254"
   d="m 749.396,656.093 c -1.916,-1.706 -3.756,-3.467 -5.533,-5.274 l 7.499,84.18 c 2.046,-0.545 4.083,-1.115 6.105,-1.723 0.231,-0.069 0.459,-0.144 0.69,-0.214 l 12.808,-62.145 c -7.856,-4.133 -15.159,-9.119 -21.569,-14.824 z"
   id="path12" />
			<path
   style="fill:#bb005e"
   d="m 627.245,578.124 102.607,161.321 c 1.81,-0.267 3.616,-0.56 5.418,-0.879 L 629.934,463.256 Z"
   id="path13" />
			<path
   style="fill:#631254"
   d="m 741.318,622.245 c 8.89,12.065 20.381,22.094 33.65,29.255 L 782.512,614.895 733.3,514.63 c -0.458,0.865 -0.904,1.737 -1.336,2.617 z"
   id="path14" />
			<path
   style="fill:#83165a"
   d="m 700.005,555.753 c -7.997,-37.55 -9.038,-76.18 -13.237,-114.343 -1.107,-10.06 -2.462,-20.158 -4.216,-30.178 l -49.062,-99.96 -3.557,151.983 105.336,275.31 c 5.418,-0.961 10.791,-2.156 16.094,-3.567 l -7.499,-84.18 c -24.819,-25.235 -36.396,-60.024 -43.859,-95.065 z"
   id="path15" />
			<path
   style="fill:#2e0557"
   d="m 721.564,562.055 c 0,22.531 7.34,43.345 19.754,60.191 l -9.354,-104.999 c -6.656,13.516 -10.4,28.723 -10.4,44.808 z"
   id="path16" />
			<polygon
   style="fill:#ed0973"
   points="605.814,544.43 627.245,578.124 629.933,463.256 594.163,369.766 "
   id="polygon16" />
			<path
   style="fill:#ba014e"
   d="m 629.933,463.256 3.557,-151.983 -6.972,-14.204 c -11.642,-10.635 -24.829,-19.608 -38.983,-26.662 l 6.628,99.359 z"
   id="path17" />
			<path
   style="fill:#83165a"
   d="m 540.407,441.596 c -0.202,16.195 -0.585,32.398 -0.68,48.574 -0.27,45.924 1.949,92.637 16.943,136.044 11.698,33.865 32.144,65.782 60.417,87.211 L 605.814,544.43 Z"
   id="path18" />
			<path
   style="fill:#2e0557"
   d="m 623.964,718.323 c 5.974,3.99 12.263,7.526 18.864,10.53 27.009,12.292 57.518,14.948 87.024,10.591 L 627.245,578.124 Z"
   id="path19" />
			<path
   style="fill:#631254"
   d="m 627.245,578.124 -21.431,-33.694 11.273,168.996 c 2.243,1.7 4.536,3.333 6.877,4.897 z"
   id="path20" />
			<path
   style="fill:#a7062e"
   d="m 482.782,255.095 c 26.183,13.018 40.759,40.074 48.46,69.079 l 8.232,-69.506 c -18.736,-3.191 -37.971,-3.203 -56.692,0.427 z"
   id="path21" />
			<path
   style="fill:#a7062e"
   d="m 482.252,271.422 22.864,88.833 c 4.92,-9.473 7.703,-20.234 7.703,-31.646 0,-23.844 -12.137,-44.851 -30.567,-57.187 z"
   id="path22" />
			<path
   style="fill:#a7062e"
   d="m 859.279,676.543 c -13.145,6.186 -27.968,8.411 -42.872,7.411 l 8.477,17.271 c 11.874,-7.631 23.329,-15.967 34.395,-24.682 z"
   id="path23" />
			<path
   style="fill:#f04e3e"
   d="m 869.816,572.731 -42.48,90.808 c 13.661,-0.555 26.625,-3.806 38.376,-9.239 l 4.313,-81.055 z"
   id="path24" />
			<path
   style="fill:#620c66"
   d="m 782.512,614.896 23.185,47.239 c 5.015,0.868 10.156,1.368 15.395,1.472 L 795.438,552.176 Z"
   id="path25" />
			<path
   style="fill:#ba014e"
   d="m 758.158,733.061 c 23.678,-7.208 45.854,-18.426 66.726,-31.837 l -8.477,-17.271 c -15.68,-1.051 -31.445,-5.679 -45.441,-13.038 z"
   id="path26" />
			<path
   style="fill:#9e0763"
   d="m 774.968,651.501 c 9.444,5.097 19.787,8.739 30.73,10.633 l -23.185,-47.239 z"
   id="path27" />
			<path
   style="fill:#4c0055"
   d="m 814.257,460.868 c -13.364,1.158 -25.99,4.897 -37.37,10.727 l 18.551,80.58 z"
   id="path28" />
			<path
   style="fill:#ed0973"
   d="m 870.083,572.16 5.177,-97.304 C 860.3,465.895 842.843,460.677 824.18,460.49 l 45.635,112.24 z"
   id="path29" />
			<path
   style="fill:#ba014e"
   d="m 824.181,460.491 c -0.347,-0.004 -0.692,-0.013 -1.04,-0.013 -2.994,0 -5.956,0.137 -8.884,0.391 l -18.818,91.307 25.654,111.431 c 0.682,0.013 1.364,0.026 2.049,0.026 1.406,0 2.803,-0.036 4.195,-0.093 l 42.48,-90.808 z"
   id="path30" />
			<path
   style="fill:#a7062e"
   d="m 870.025,573.245 24.736,60.837 c 18.502,-18.398 29.957,-43.874 29.957,-72.027 0,-23.266 -7.828,-44.701 -20.986,-61.826 l -33.65,71.932 z"
   id="path31" />
			<path
   style="fill:#f68b1f"
   d="m 870.025,573.245 -4.313,81.055 c 10.854,-5.018 20.674,-11.891 29.049,-20.218 z"
   id="path32" />
			<path
   style="fill:#ba014e"
   d="m 903.733,500.228 c -7.792,-10.142 -17.453,-18.771 -28.472,-25.372 l -5.177,97.304 z"
   id="path33" />
			<path
   style="fill:#2e0557"
   d="m 420.128,264.118 c -9.113,3.382 -17.312,8.641 -24.133,15.306 l 8.548,31.303 z"
   id="path34" />
			<path
   style="fill:#ed0973"
   d="m 434.269,260.536 24.783,77.672 9.458,-73.884 c -7.601,-2.894 -15.845,-4.483 -24.461,-4.483 -3.32,-0.001 -6.585,0.24 -9.78,0.695 z"
   id="path35" />
			<path
   style="fill:#ba014e"
   d="m 451.53,396.971 c 8.561,-0.926 16.652,-3.421 23.977,-7.196 l -16.454,-51.568 z"
   id="path36" />
			<path
   style="fill:#631254"
   d="m 427.668,395.408 -23.125,-84.682 -18.391,55.003 c 9.389,14.615 24.162,25.438 41.516,29.679 z"
   id="path37" />
			<path
   style="fill:#83165a"
   d="m 420.128,264.118 -15.585,46.608 23.125,84.682 c 5.251,1.283 10.736,1.969 16.382,1.969 2.528,0 5.022,-0.14 7.48,-0.406 l 7.523,-58.763 -24.783,-77.672 c -4.9,0.697 -9.633,1.909 -14.142,3.582 z"
   id="path38" />
		</g>
	</g>
	<g
   id="g46">
		<path
   style="fill:#2e0557"
   d="m 480.705,869.611 c -4.454,4.613 -56.781,57.417 -69.664,69.505 -13.678,13.041 -22.267,16.859 -29.106,16.859 -10.497,0 -15.269,-7.634 -6.202,-24.176 2.067,-3.816 9.861,-18.29 19.563,-36.421 -5.885,0 -14.315,0 -23.221,0 -8.43,9.223 -15.427,17.177 -19.881,22.267 -19.245,22.425 -34.99,38.172 -58.53,38.172 -39.762,0 -17.495,-71.891 73.163,-73.64 34.195,-35.468 79.843,-83.024 79.843,-83.024 h 25.129 c 0,0 -49.942,93.52 -56.781,106.405 -2.385,4.294 -6.68,13.041 -5.248,14.313 1.272,1.432 4.931,-2.067 9.065,-5.566 6.203,-5.09 54.236,-50.896 60.122,-57.098 3.178,-3.183 3.337,10.654 1.748,12.404 z m -126.922,25.925 c -48.033,3.181 -72.845,42.783 -57.258,42.783 7.157,0 17.337,-2.225 36.104,-20.995 3.976,-4.133 11.611,-11.928 21.154,-21.788 z m 48.828,-13.838 c 8.748,-16.382 18.29,-34.195 26.084,-48.986 -11.769,12.883 -29.105,31.968 -44.693,49.305 6.999,0 13.678,-0.158 18.609,-0.319 z"
   id="path39" />
		<path
   style="fill:#2e0557"
   d="m 521.889,919.076 c -16.701,25.765 -41.353,36.898 -55.508,36.898 -11.929,0 -17.654,-7.317 -18.768,-15.747 l -8.588,15.747 h -25.13 l 84.138,-156.823 h 25.129 l -36.421,67.914 c 9.223,-9.225 20.358,-16.701 31.172,-16.701 21.631,10e-4 32.764,24.495 3.976,68.712 z m -15.905,-50.578 c -8.111,0 -23.22,13.995 -33.4,31.174 -10.179,17.177 -11.928,31.172 -3.658,31.172 8.112,0 23.063,-13.995 33.401,-31.172 10.178,-17.179 11.928,-31.174 3.657,-31.174 z"
   id="path40" />
		<path
   style="fill:#2e0557"
   d="m 655.327,868.02 c -14.315,21.473 -45.647,44.852 -66.323,54.873 -10.816,27.834 -27.039,33.082 -43.262,33.082 -9.862,0 -23.857,-3.181 -21.312,-17.018 1.908,-10.974 20.676,-14.632 41.034,-20.041 1.591,-4.77 2.862,-10.497 4.294,-17.972 1.272,-7.476 2.386,-15.427 3.977,-23.062 -17.338,16.54 -68.233,51.691 -78.254,61.234 l 6.363,-17.972 c 3.816,-3.181 53.282,-40.399 77.456,-60.916 4.455,-9.543 11.77,-16.382 24.335,-17.177 27.834,-1.908 -1.432,23.062 -1.432,23.062 l -6.361,31.811 c -0.637,3.975 -1.591,7.793 -2.545,11.292 16.699,-7.476 37.376,-21.79 60.597,-52.009 3.819,-3.183 2.705,8.746 1.433,10.813 z m -96.384,65.53 c -9.225,2.862 -16.223,5.407 -16.859,8.747 -1.113,5.885 6.839,4.612 10.816,-0.795 1.907,-2.546 3.976,-4.773 6.043,-7.952 z"
   id="path41" />
		<path
   style="fill:#2e0557"
   d="m 717.191,869.611 c -4.455,4.613 -64.733,57.417 -77.457,69.505 -13.837,13.041 -22.425,16.859 -29.105,16.859 -10.497,0 -15.269,-7.634 -6.202,-24.176 3.181,-5.883 20.199,-37.853 36.898,-68.868 h -18.448 c 2.703,-5.089 4.294,-7.952 4.294,-7.952 h 18.29 c 15.747,-29.425 20.677,-38.013 20.677,-38.013 h 25.286 c 0,0 -6.044,10.338 -20.676,38.013 l 18.926,-0.159 c 0,0 -1.591,3.021 -4.294,8.11 h -18.925 c -10.497,19.724 -20.041,37.537 -22.744,42.627 -2.386,4.294 -6.68,13.041 -5.407,14.313 1.272,1.432 5.09,-2.067 9.225,-5.566 6.043,-5.09 62.028,-50.896 67.913,-57.098 3.021,-3.182 3.34,10.655 1.749,12.405 z"
   id="path42" />
		<path
   style="fill:#2e0557"
   d="m 792.895,869.611 c -4.455,4.613 -56.781,57.417 -69.665,69.505 -13.678,13.041 -22.584,16.859 -29.106,16.859 -10.497,0 -15.11,-7.634 -6.202,-24.176 6.521,-11.929 15.269,-29.264 23.062,-42.305 8.112,-13.519 -1.591,-14.634 -5.407,-16.542 -8.589,-4.453 -20.995,-18.45 -9.384,-33.082 9.225,-11.451 23.062,-9.225 30.855,-4.135 8.43,5.409 0.795,16.064 -8.747,26.402 0.954,1.115 2.067,2.069 3.499,2.864 12.246,6.998 27.993,-1.115 17.336,19.244 -3.975,7.634 -5.089,8.43 -11.929,21.314 -2.386,4.294 -6.52,13.041 -5.248,14.313 1.272,1.432 5.09,-2.067 9.066,-5.566 6.202,-5.09 54.236,-50.896 60.121,-57.098 3.179,-3.184 3.338,10.653 1.749,12.403 z"
   id="path43" />
		<path
   style="fill:#2e0557"
   d="m 898.18,869.611 c -4.453,4.613 -56.939,57.417 -69.663,69.505 -13.678,13.041 -22.425,16.859 -29.105,16.859 -8.908,0 -13.678,-5.407 -9.384,-17.177 -9.384,9.384 -20.677,17.177 -31.652,17.177 -21.63,0 -28.151,-25.448 -5.566,-59.803 22.584,-34.354 42.942,-45.806 56.939,-45.806 9.065,0 15.745,8.43 17.655,17.815 5.566,-10.34 9.384,-17.655 9.384,-17.655 l 25.289,-0.16 c 0,0 -22.744,42.307 -29.583,55.192 -2.386,4.294 -6.68,13.041 -5.409,14.313 1.432,1.432 5.09,-2.067 9.225,-5.566 6.202,-5.09 54.236,-50.896 60.121,-57.098 3.181,-3.183 3.339,10.654 1.749,12.404 z m -88.75,30.061 c 10.34,-17.179 11.93,-31.174 3.818,-31.174 -8.271,0 -23.22,13.995 -33.56,31.174 -10.179,17.177 -11.77,31.172 -3.658,31.172 8.271,0 23.22,-13.995 33.4,-31.172 z"
   id="path44" />
		<path
   style="fill:#2e0557"
   d="m 986.605,868.974 c -23.379,38.013 -63.461,87.001 -102.587,87.001 -35.944,0 -47.078,-30.059 -25.289,-64.893 17.813,-28.31 39.604,-40.717 53.76,-40.717 22.903,0 36.422,21.154 14.473,50.42 -8.112,10.655 -21.79,-5.09 -21.79,-5.09 10.179,-8.589 18.928,-27.197 10.657,-27.197 -8.271,0 -23.222,13.837 -33.401,31.174 -13.041,21.947 -9.384,37.377 9.384,37.377 27.358,0 61.553,-37.059 92.09,-79.843 2.545,-3.501 3.977,9.701 2.703,11.768 z"
   id="path45" />
		<path
   style="fill:#2e0557"
   d="m 944.453,955.975 c -10.497,0 -15.269,-7.634 -6.202,-24.176 3.181,-5.883 20.2,-37.853 36.898,-68.868 h -18.448 c 2.703,-5.089 4.294,-7.952 4.294,-7.952 h 18.29 c 15.747,-29.425 20.677,-38.013 20.677,-38.013 h 25.287 c 0,0 -6.044,10.338 -20.676,38.013 l 18.926,-0.159 c 0,0 -1.591,3.021 -4.294,8.11 h -18.926 c -10.497,19.724 -20.041,37.537 -22.744,42.627 -12.883,23.062 -10.179,31.492 -3.977,33.558 -13.836,13.042 -22.425,16.86 -29.105,16.86 z"
   id="path46" />
	</g>
	<g
   id="g53">
		<path
   style="fill:#bb005e"
   d="m 341.16,1040.819 c -1.373,0.866 -2.817,1.661 -4.334,2.31 -3.322,1.372 -6.861,2.095 -10.472,2.095 -3.611,0 -7.15,-0.723 -10.401,-2.095 -3.249,-1.372 -6.067,-3.321 -8.522,-5.777 -2.455,-2.455 -4.405,-5.271 -5.777,-8.521 -1.372,-3.25 -2.094,-6.79 -2.094,-10.401 0,-3.61 0.722,-7.149 2.094,-10.472 1.372,-3.178 3.322,-6.066 5.777,-8.521 2.456,-2.457 5.273,-4.405 8.522,-5.707 3.25,-1.444 6.79,-2.093 10.401,-2.093 3.611,0 7.15,0.649 10.472,2.093 0.362,0.145 0.794,0.362 1.156,0.506 v 9.895 c -3.25,-2.673 -7.295,-4.118 -11.628,-4.118 -4.912,0 -9.534,1.878 -13,5.418 -3.467,3.467 -5.417,8.089 -5.417,12.999 0,4.911 1.95,9.534 5.417,13.001 3.466,3.467 8.088,5.416 13,5.416 4.91,0 9.533,-1.949 13,-5.416 0.65,-0.651 1.227,-1.3 1.806,-2.023 z"
   id="path47" />
		<path
   style="fill:#bb005e"
   d="m 421.417,1043.129 c -3.25,-1.372 -6.067,-3.321 -8.522,-5.777 -2.456,-2.455 -4.406,-5.271 -5.778,-8.521 -1.372,-3.25 -2.094,-6.79 -2.094,-10.401 0,-3.61 0.722,-7.149 2.094,-10.472 1.372,-3.178 3.323,-5.994 5.778,-8.521 2.456,-2.457 5.272,-4.333 8.522,-5.707 3.249,-1.372 6.789,-2.093 10.4,-2.093 3.611,0 7.15,0.721 10.473,2.093 3.177,1.374 5.994,3.25 8.522,5.707 2.455,2.527 4.333,5.344 5.705,8.521 1.372,3.323 2.094,6.862 2.094,10.472 0,3.612 -0.722,7.151 -2.094,10.401 -1.372,3.25 -3.25,6.067 -5.705,8.521 -2.528,2.457 -5.345,4.405 -8.522,5.777 -3.322,1.372 -6.862,2.095 -10.473,2.095 -3.611,0 -7.151,-0.723 -10.4,-2.095 z m -2.601,-37.699 c -3.466,3.467 -5.417,8.089 -5.417,12.999 0,4.911 1.95,9.534 5.417,13.001 3.467,3.467 8.089,5.416 13,5.416 4.911,0 9.534,-1.949 13,-5.416 3.467,-3.467 5.417,-8.089 5.417,-13.001 0,-4.91 -1.95,-9.532 -5.417,-12.999 -3.466,-3.467 -8.089,-5.418 -13,-5.418 -4.91,0 -9.533,1.95 -13,5.418 z"
   id="path48" />
		<path
   style="fill:#bb005e"
   d="m 567.831,1045.224 v -28.456 l -16.755,24.989 -16.828,-24.989 v 28.456 h -8.379 v -56.045 l 25.206,37.556 25.206,-37.556 v 56.045 z"
   id="path49" />
		<path
   style="fill:#bb005e"
   d="m 652.352,991.635 h 8.811 c 7.077,0 11.194,2.889 13.36,5.271 2.889,3.178 4.335,7.441 4.335,12.423 0,4.984 -1.446,9.317 -4.335,12.422 -2.166,2.457 -6.283,5.345 -13.36,5.345 h -7.511 v 18.127 h -8.379 v -53.589 h 7.079 z m 18.992,17.694 c 0,-2.093 -0.432,-5.127 -2.382,-7.294 -1.734,-1.878 -4.333,-2.889 -7.8,-2.889 h -7.511 v 20.367 h 7.511 c 3.467,0 6.067,-0.94 7.8,-2.816 1.95,-2.168 2.382,-5.201 2.382,-7.368 z"
   id="path50" />
		<path
   style="fill:#bb005e"
   d="M 768.136,1033.74 H 749.07 l -4.55,11.484 h -9.244 l 23.328,-56.045 23.256,56.045 h -9.172 z m -3.033,-7.511 -6.499,-16.322 -6.5,16.322 z"
   id="path51" />
		<path
   style="fill:#bb005e"
   d="m 855.472,1010.773 v 34.451 h -8.379 v -56.118 l 33.656,36.906 v -34.377 h 8.451 v 56.044 z"
   id="path52" />
		<path
   style="fill:#bb005e"
   d="m 981.662,1017.201 v 28.023 h -8.377 v -28.023 l -18.851,-25.566 h 9.028 l 14.011,19.066 14.011,-19.066 h 8.955 z"
   id="path53" />
	</g>
</g>
</svg>
