<svg width="281" height="61" viewBox="0 0 281 61" fill="none" xmlns="http://www.w3.org/2000/svg">
<path d="M45.7276 27.0531C44.9696 27.8157 44.3892 28.7361 44.0276 29.7485C43.666 30.7611 43.5322 31.8408 43.6356 32.911L43.5996 32.8751C43.706 34.1348 43.536 35.4025 43.1018 36.5899C42.6676 37.7771 41.9796 38.8553 41.0858 39.7493C40.1918 40.6431 39.1136 41.3313 37.9262 41.7653C36.739 42.1995 35.4712 42.3694 34.2116 42.2631L34.2476 42.299C32.7408 42.1588 31.2274 42.4866 29.9136 43.238C28.6 43.9894 27.55 45.1276 26.907 46.4977C26.264 47.8677 26.059 49.4024 26.3202 50.8932C26.5816 52.3839 27.2962 53.7577 28.3668 54.8273C29.4374 55.8969 30.8118 56.6102 32.3026 56.87C33.7936 57.13 35.3282 56.9236 36.6976 56.2794C38.067 55.635 39.2042 54.5843 39.9544 53.2699C40.7046 51.9555 41.0312 50.4419 40.8896 48.9351L40.9276 48.9711C40.8212 47.7115 40.991 46.4437 41.4252 45.2563C41.8594 44.0691 42.5476 42.9909 43.4414 42.0969C44.3354 41.2031 45.4136 40.5148 46.6008 40.0808C47.7882 39.6466 49.0558 39.4767 50.3156 39.583L50.2776 39.5471C51.5084 39.6577 52.7474 39.4559 53.8796 38.9603C55.0116 38.4647 56.0004 37.6912 56.754 36.7118C57.5076 35.7324 58.002 34.5785 58.1908 33.3573C58.3798 32.1358 58.2574 30.8867 57.835 29.7251C57.4126 28.5637 56.7038 27.5277 55.7744 26.7131C54.845 25.8985 53.725 25.3317 52.5182 25.0653C51.3114 24.7989 50.0568 24.8413 48.8708 25.1887C47.6848 25.5363 46.6058 26.1775 45.7336 27.0531H45.7276Z" fill="#E3E7E8"/>
<path d="M30.9738 37.5811L30.9358 37.5451C32.0064 37.6529 33.0876 37.5215 34.1014 37.1603C35.115 36.7991 36.0358 36.2173 36.797 35.4567C37.558 34.6961 38.1408 33.7757 38.5026 32.7623C38.8646 31.7489 38.9968 30.6679 38.8898 29.5971L38.9278 29.6331C38.8214 28.3733 38.9914 27.1057 39.4254 25.9183C39.8596 24.7311 40.5478 23.6529 41.4416 22.7589C42.3356 21.8651 43.4138 21.1769 44.601 20.7429C45.7884 20.3086 47.056 20.1387 48.3158 20.2451L48.2778 20.2091C49.7848 20.3507 51.2986 20.0238 52.613 19.2733C53.9276 18.5228 54.9784 17.385 55.6224 16.0153C56.2664 14.6456 56.4722 13.1105 56.2118 11.6195C55.9514 10.1285 55.2374 8.75409 54.167 7.68381C53.0968 6.61355 51.7224 5.89947 50.2314 5.63903C48.7404 5.37857 47.2054 5.58439 45.8356 6.22843C44.4658 6.87245 43.3282 7.92335 42.5776 9.23777C41.827 10.5522 41.5002 12.0661 41.6418 13.5731L41.6058 13.5351C41.7124 14.7949 41.5428 16.0627 41.1088 17.2502C40.6748 18.4376 39.9866 19.516 39.0928 20.4101C38.1988 21.3039 37.1204 21.9921 35.933 22.4261C34.7454 22.8601 33.4776 23.0297 32.2178 22.9231L32.2538 22.9611C31.1832 22.8533 30.1018 22.9847 29.0882 23.3459C28.0746 23.7069 27.1538 24.2889 26.3926 25.0495C25.6314 25.8101 25.0488 26.7305 24.6868 27.7439C24.325 28.7573 24.1928 29.8383 24.2998 30.9091L24.2638 30.8731C24.3698 32.1327 24.1996 33.4003 23.7654 34.5875C23.331 35.7745 22.643 36.8527 21.7492 37.7465C20.8554 38.6403 19.7773 39.3283 18.5902 39.7627C17.403 40.1969 16.1355 40.3671 14.8758 40.2611L14.9118 40.2971C13.4049 40.1555 11.8909 40.4823 10.5765 41.2329C9.26212 41.9835 8.21122 43.1211 7.5672 44.4909C6.92316 45.8607 6.71732 47.3957 6.97778 48.8867C7.23824 50.3777 7.95232 51.7521 9.02258 52.8223C10.0929 53.8927 11.4672 54.6067 12.9582 54.8671C14.4493 55.1275 15.9843 54.9217 17.3541 54.2777C18.7238 53.6337 19.8615 52.5829 20.612 51.2685C21.3626 49.9539 21.6894 48.4401 21.5478 46.9331L21.5858 46.9691C21.4794 45.7093 21.6494 44.4417 22.0836 43.2543C22.5176 42.0671 23.2058 40.9889 24.0996 40.0949C24.9936 39.2011 26.0718 38.5129 27.259 38.0789C28.4464 37.6447 29.714 37.4747 30.9738 37.5811Z" fill="#E3E7E8"/>
<path d="M17.57 33.5684C18.328 32.806 18.9083 31.8856 19.2696 30.873C19.6309 29.8604 19.7642 28.7804 19.66 27.7104L19.6979 27.7464C19.5915 26.4864 19.7614 25.2182 20.1959 24.0306C20.6303 22.843 21.3188 21.7646 22.2132 20.8706C23.1075 19.9767 24.1861 19.2887 25.3739 18.8548C26.5617 18.4209 27.83 18.2515 29.09 18.3584L29.052 18.3224C30.5583 18.4636 32.0718 18.1366 33.3856 17.3861C34.6994 16.6356 35.7495 15.4982 36.3933 14.1289C37.0369 12.7596 37.2425 11.2251 36.9822 9.73461C36.7218 8.24415 36.0077 6.87031 34.938 5.80043C33.8682 4.73055 32.4942 4.01671 31.0037 3.75627C29.5133 3.49581 27.9788 3.70145 26.6096 4.34509C25.2402 4.98873 24.1028 6.03907 23.3524 7.35287C22.6017 8.66667 22.2747 10.18 22.4159 11.6864L22.3799 11.6504C22.4863 12.9101 22.3164 14.1779 21.8822 15.3651C21.448 16.5524 20.76 17.6306 19.8661 18.5246C18.9722 19.4185 17.8939 20.1065 16.7066 20.5406C15.5194 20.9748 14.2516 21.1448 12.9919 21.0384L13.0279 21.0744C11.7971 20.964 10.5583 21.1662 9.42631 21.662C8.29435 22.1578 7.30585 22.9314 6.55243 23.911C5.79901 24.8904 5.30505 26.0444 5.11629 27.2656C4.92755 28.487 5.05013 29.7362 5.47267 30.8974C5.89521 32.0588 6.60407 33.0946 7.53353 33.909C8.46299 34.7236 9.58299 35.2902 10.7897 35.5566C11.9965 35.8228 13.2509 35.7802 14.4369 35.4328C15.6228 35.0852 16.7018 34.444 17.5739 33.5684H17.57Z" fill="#E3E7E8"/>
<path d="M79.5233 13.6191H85.4633V42.5251H79.5233V13.6191Z" fill="#E3E7E8"/>
<path d="M88.8273 32.6278C88.8191 30.5506 89.4275 28.5174 90.5755 26.7862C91.7235 25.055 93.3595 23.7034 95.2763 22.9028C97.1931 22.102 99.3043 21.8882 101.343 22.2884C103.381 22.6886 105.255 23.6846 106.727 25.1506C108.199 26.6164 109.202 28.4862 109.611 30.523C110.019 32.5598 109.814 34.672 109.021 36.592C108.228 38.5118 106.883 40.1534 105.156 41.3082C103.429 42.4632 101.399 43.0798 99.3213 43.0798C97.9425 43.0956 96.5743 42.8362 95.2967 42.317C94.0191 41.7978 92.8579 41.0292 91.8809 40.0562C90.9037 39.083 90.1305 37.9248 89.6063 36.6494C89.0819 35.374 88.8171 34.0068 88.8273 32.6278ZM103.875 32.6278C103.851 31.7324 103.562 30.8642 103.047 30.1316C102.531 29.3992 101.811 28.8348 100.977 28.5094C100.142 28.1838 99.2305 28.1114 98.3551 28.3014C97.4797 28.4914 96.6797 28.935 96.0551 29.5772C95.4307 30.2192 95.0091 31.0312 94.8437 31.9116C94.6781 32.7918 94.7755 33.7014 95.1241 34.5266C95.4727 35.3518 96.0567 36.0558 96.8031 36.5508C97.5497 37.0458 98.4257 37.3098 99.3213 37.3098C99.9347 37.3262 100.545 37.2152 101.114 36.984C101.682 36.7528 102.196 36.4064 102.624 35.9666C103.052 35.5266 103.384 35.0028 103.599 34.4282C103.815 33.8536 103.909 33.2406 103.875 32.6278Z" fill="#E3E7E8"/>
<path d="M133.489 22.7282V41.5282C133.489 48.1802 128.301 50.9922 123.035 50.9922C121.181 51.131 119.325 50.7564 117.669 49.9098C116.014 49.063 114.624 47.7768 113.651 46.1922L118.719 43.2622C119.128 44.0882 119.78 44.7696 120.586 45.2154C121.393 45.661 122.317 45.8498 123.233 45.7562C123.819 45.8374 124.416 45.7858 124.98 45.6052C125.543 45.4246 126.058 45.1196 126.488 44.713C126.918 44.3062 127.25 43.8082 127.461 43.2554C127.672 42.7028 127.756 42.1098 127.707 41.5202V39.7102C127.012 40.5612 126.127 41.2374 125.122 41.6844C124.118 42.1314 123.023 42.3368 121.925 42.2842C119.313 42.2018 116.835 41.1062 115.016 39.229C113.198 37.352 112.181 34.8408 112.181 32.2272C112.181 29.6136 113.198 27.1024 115.016 25.2254C116.835 23.3482 119.313 22.2526 121.925 22.1702C123.023 22.1176 124.118 22.323 125.122 22.77C126.127 23.217 127.012 23.8932 127.707 24.7442V22.7242L133.489 22.7282ZM127.709 32.2302C127.749 31.273 127.502 30.3256 126.999 29.5102C126.496 28.6946 125.76 28.0484 124.887 27.6546C124.013 27.2606 123.042 27.1372 122.098 27.3C121.154 27.4628 120.28 27.9044 119.589 28.5682C118.898 29.2318 118.421 30.087 118.22 31.0238C118.019 31.9606 118.103 32.9362 118.462 33.8248C118.82 34.7134 119.436 35.4746 120.23 36.0102C121.025 36.5458 121.961 36.8314 122.919 36.8302C123.544 36.8738 124.17 36.7862 124.758 36.573C125.346 36.3598 125.883 36.0256 126.334 35.5924C126.786 35.159 127.141 34.636 127.378 34.0568C127.615 33.4778 127.728 32.8556 127.709 32.2302Z" fill="#E3E7E8"/>
<path d="M136.854 32.6278C136.845 30.5506 137.454 28.5174 138.602 26.7862C139.75 25.055 141.386 23.7034 143.303 22.9028C145.219 22.102 147.331 21.8882 149.369 22.2884C151.407 22.6886 153.281 23.6846 154.753 25.1506C156.225 26.6164 157.228 28.4862 157.637 30.523C158.045 32.5598 157.84 34.672 157.047 36.592C156.254 38.5118 154.909 40.1534 153.182 41.3082C151.455 42.4632 149.425 43.0798 147.348 43.0798C145.969 43.0956 144.6 42.8362 143.323 42.317C142.045 41.7978 140.884 41.0292 139.907 40.0562C138.93 39.083 138.157 37.9248 137.633 36.6494C137.108 35.374 136.843 34.0068 136.854 32.6278ZM151.902 32.6278C151.877 31.7324 151.589 30.8642 151.073 30.1316C150.558 29.3992 149.838 28.8348 149.003 28.5094C148.169 28.1838 147.257 28.1114 146.381 28.3014C145.506 28.4914 144.706 28.935 144.081 29.5772C143.457 30.2192 143.035 31.0312 142.87 31.9116C142.704 32.7918 142.802 33.7014 143.15 34.5266C143.499 35.3518 144.083 36.0558 144.829 36.5508C145.576 37.0458 146.452 37.3098 147.348 37.3098C147.961 37.3262 148.571 37.2152 149.14 36.984C149.708 36.7528 150.223 36.4064 150.65 35.9666C151.078 35.5266 151.41 35.0028 151.626 34.4282C151.841 33.8536 151.935 33.2406 151.902 32.6278Z" fill="#E3E7E8"/>
<path d="M160.611 17.4214C160.611 16.7165 160.82 16.0275 161.212 15.4414C161.603 14.8553 162.16 14.3985 162.811 14.1287C163.463 13.859 164.179 13.7884 164.871 13.9259C165.562 14.0634 166.197 14.4029 166.695 14.9013C167.194 15.3997 167.533 16.0348 167.671 16.7261C167.808 17.4175 167.738 18.1341 167.468 18.7853C167.198 19.4365 166.741 19.9932 166.155 20.3848C165.569 20.7764 164.88 20.9854 164.175 20.9854C163.233 20.976 162.332 20.5976 161.665 19.9312C160.999 19.2648 160.621 18.3637 160.611 17.4214ZM161.211 22.7274H167.153V42.5274H161.203L161.211 22.7274Z" fill="#E3E7E8"/>
<path d="M192.802 32.6271C192.87 33.9357 192.68 35.2449 192.241 36.4795C191.802 37.7141 191.123 38.8497 190.243 39.8211C189.364 40.7923 188.301 41.5803 187.116 42.1395C185.931 42.6985 184.647 43.0179 183.338 43.0791C182.237 43.1391 181.137 42.9535 180.117 42.5357C179.096 42.1177 178.182 41.4781 177.44 40.6631V50.4451H171.5V22.7271H177.44V24.5871C178.182 23.7727 179.097 23.1335 180.117 22.7161C181.137 22.2985 182.237 22.1131 183.338 22.1731C184.647 22.2341 185.931 22.5533 187.117 23.1125C188.302 23.6717 189.365 24.4597 190.245 25.4313C191.124 26.4029 191.803 27.5389 192.242 28.7739C192.681 30.0087 192.871 31.3183 192.802 32.6271ZM186.862 32.6271C186.839 31.7005 186.543 30.8013 186.011 30.0419C185.479 29.2827 184.735 28.6971 183.872 28.3587C183.009 28.0201 182.066 27.9435 181.16 28.1387C180.253 28.3337 179.425 28.7917 178.778 29.4553C178.131 30.1191 177.694 30.9587 177.521 31.8697C177.349 32.7805 177.449 33.7217 177.81 34.5759C178.17 35.4301 178.774 36.1589 179.546 36.6715C180.319 37.1839 181.225 37.4573 182.152 37.4571C182.788 37.4855 183.423 37.3789 184.016 37.1445C184.608 36.9103 185.144 36.5533 185.589 36.0973C186.034 35.6411 186.377 35.0963 186.596 34.4983C186.816 33.9003 186.906 33.2625 186.862 32.6271Z" fill="#E3E7E8"/>
<path d="M211.132 36.5863C211.132 41.1403 207.174 43.0803 202.898 43.0803C201.17 43.2367 199.435 42.8715 197.917 42.0313C196.399 41.1913 195.169 39.9153 194.384 38.3683L199.53 35.4383C199.738 36.1533 200.185 36.7755 200.796 37.2005C201.408 37.6257 202.148 37.8283 202.89 37.7743C204.314 37.7743 205.028 37.3383 205.028 36.5483C205.028 34.3683 195.286 35.5183 195.286 28.6683C195.286 24.3503 198.93 22.1743 203.048 22.1743C204.596 22.1253 206.128 22.4925 207.486 23.2375C208.844 23.9827 209.978 25.0783 210.768 26.4103L205.7 29.1423C205.478 28.6237 205.108 28.1819 204.636 27.8721C204.164 27.5623 203.612 27.3983 203.048 27.4003C202.018 27.4003 201.384 27.8003 201.384 28.5083C201.392 30.7663 211.132 29.2603 211.132 36.5863Z" fill="#E3E7E8"/>
<path d="M232.83 22.7285V42.5285H226.89V40.6665C226.204 41.4881 225.334 42.1355 224.35 42.5555C223.366 42.9755 222.298 43.1561 221.23 43.0825C217.23 43.0825 213.83 40.2325 213.83 34.8825V22.7285H219.77V34.0125C219.72 34.4841 219.774 34.9609 219.928 35.4095C220.08 35.8583 220.33 36.2683 220.658 36.6109C220.986 36.9535 221.384 37.2205 221.826 37.3935C222.266 37.5665 222.74 37.6413 223.214 37.6125C225.392 37.6125 226.896 36.3465 226.896 33.5345V22.7345L232.83 22.7285Z" fill="#E3E7E8"/>
<path d="M266.889 30.372V42.528H260.949V30.886C260.949 28.906 259.999 27.64 258.099 27.64C256.119 27.64 255.009 29.026 255.009 31.362V42.528H249.071V30.886C249.071 28.906 248.121 27.64 246.219 27.64C244.239 27.64 243.131 29.026 243.131 31.362V42.528H237.191V22.728H243.131V24.548C243.747 23.7406 244.555 23.1002 245.481 22.6856C246.409 22.2708 247.425 22.095 248.437 22.174C249.453 22.1242 250.465 22.3388 251.375 22.7966C252.283 23.2542 253.057 23.9398 253.623 24.786C254.281 23.9006 255.153 23.1966 256.157 22.7398C257.161 22.283 258.265 22.0884 259.365 22.174C263.911 22.176 266.889 25.422 266.889 30.372Z" fill="#E3E7E8"/>
<path d="M271.914 22.607C274.348 22.607 276.322 20.6334 276.322 18.199C276.322 15.7645 274.348 13.791 271.914 13.791C269.48 13.791 267.506 15.7645 267.506 18.199C267.506 20.6334 269.48 22.607 271.914 22.607Z" fill="#E3E7E8"/>
</svg>
