<svg width="241" height="57" viewBox="0 0 241 57" fill="none" xmlns="http://www.w3.org/2000/svg">
<g clip-path="url(#clip0_4066_465)">
<path fill-rule="evenodd" clip-rule="evenodd" d="M14.278 3.5874V56.8418H0.0557861V3.5874H14.278Z" fill="#E3E7E8"/>
<path fill-rule="evenodd" clip-rule="evenodd" d="M21.3892 3.5874H51.6114C61.4298 3.5874 69.3892 11.535 69.3892 21.3389C69.3892 31.1428 61.4298 39.0904 51.6114 39.0904H35.6114V56.8418H21.3892V3.5874ZM35.6114 24.8892H51.6114C53.5751 24.8892 55.167 23.2996 55.167 21.3389C55.167 19.3781 53.5751 17.7886 51.6114 17.7886H35.6114V24.8892Z" fill="#E3E7E8"/>
<path fill-rule="evenodd" clip-rule="evenodd" d="M122.722 3.5874V31.1022C122.722 37.4747 127.896 42.6407 134.278 42.6407C140.66 42.6407 145.833 37.4747 145.833 31.1022V3.5874H160.056V31.1022C160.056 45.3179 148.515 56.8418 134.278 56.8418C120.041 56.8418 108.5 45.3179 108.5 31.1022V3.5874H122.722Z" fill="#E3E7E8"/>
<path fill-rule="evenodd" clip-rule="evenodd" d="M74.7224 28.4395C74.7224 14.714 85.8655 3.5874 99.6113 3.5874H103.167V17.7886H99.6113C93.7202 17.7886 88.9446 22.5572 88.9446 28.4395V30.2146C88.9446 44.9204 77.0056 56.8418 62.2779 56.8418H60.5002V42.6407H62.2779C69.1509 42.6407 74.7224 37.0773 74.7224 30.2146V28.4395Z" fill="#E3E7E8"/>
<path d="M240.055 5.36255C240.055 8.30372 237.668 10.688 234.721 10.688C231.776 10.688 229.389 8.30372 229.389 5.36255C229.389 2.42139 231.776 0.0371094 234.721 0.0371094C237.668 0.0371094 240.055 2.42139 240.055 5.36255Z" fill="#E3E7E8"/>
<path d="M175.327 56.8429L182.114 28.4663L187.159 45.5378C190.167 55.7198 204.611 55.7198 207.62 45.5378L212.665 28.4663L219.451 56.8429H234.073L223.402 12.2221C220.864 1.61089 205.889 1.218 202.796 11.6816L197.39 29.979L191.982 11.6816C188.89 1.21806 173.914 1.61083 171.376 12.2221L160.705 56.8429H175.327Z" fill="#E3E7E8"/>
</g>
<defs>
<clipPath id="clip0_4066_465">
<rect width="240" height="56.8047" fill="white" transform="translate(0.0557861 0.0371094)"/>
</clipPath>
</defs>
</svg>
