<svg width="98" height="23" viewBox="0 0 98 23" fill="none" xmlns="http://www.w3.org/2000/svg">
<path d="M32.7402 6.11356C34.2838 6.1136 35.6217 6.42235 36.8564 7.03934C38.0643 7.65559 39.0171 8.5571 39.7363 9.71317C40.457 10.8695 40.792 12.2851 40.792 13.9309V14.4192C40.792 16.0651 40.4318 17.4793 39.7363 18.637C39.0416 19.7938 38.091 20.6946 36.8564 21.3108C35.6477 21.9271 34.2838 22.2366 32.7402 22.2366C31.2226 22.2366 29.8595 21.9278 28.624 21.3108C27.4159 20.6938 26.4622 19.7933 25.7422 18.637C25.0215 17.4807 24.6885 16.0651 24.6885 14.4192V13.9309C24.6885 12.2851 25.0481 10.8709 25.7422 9.71317C26.437 8.55615 27.3885 7.65565 28.624 7.03934C29.8328 6.42237 31.1967 6.11356 32.7402 6.11356ZM50.9004 6.06277C52.3922 6.06277 53.6281 6.32019 54.6562 6.83426C55.7109 7.34832 56.5595 8.04248 57.2031 8.94168C57.8461 9.84163 58.2826 10.8448 58.4893 11.9759L54.7344 12.7727C54.658 12.1565 54.4768 11.5897 54.168 11.1009C53.885 10.6128 53.473 10.2271 52.959 9.91824C52.445 9.6095 51.7757 9.48079 51.0049 9.48074C50.2338 9.48074 49.5123 9.66034 48.8945 9.99442C48.277 10.3292 47.7633 10.8434 47.4033 11.512C47.0426 12.1809 46.8633 13.0042 46.8633 13.9554V14.2639C46.8633 15.2417 47.044 16.0392 47.4033 16.7073C47.7625 17.3752 48.2518 17.8901 48.8945 18.2249C49.5123 18.5597 50.2331 18.7386 51.0049 18.7386C52.1882 18.7385 53.062 18.43 53.6797 17.8391C54.2974 17.2221 54.6838 16.4246 54.8379 15.4475L58.5928 16.3479C58.3358 17.4277 57.8725 18.4298 57.2305 19.3304C56.5875 20.2303 55.7384 20.9247 54.6836 21.4388C53.6281 21.9528 52.3677 22.2102 50.9277 22.2102L50.9023 22.2356H50.9004V22.2366C49.4087 22.2365 48.0711 21.9278 46.8623 21.3108C45.6535 20.6938 44.7009 19.7932 44.0068 18.637C43.312 17.4807 42.9512 16.0388 42.9512 14.3684V13.9309C42.9512 12.2591 43.3106 10.8446 44.0068 9.66238C44.7016 8.47953 45.6528 7.60484 46.8623 6.98856C48.0703 6.3723 49.4087 6.06283 50.9004 6.06277ZM21.4482 21.8011H17.5645V0.201447H21.4482V21.8011ZM65.3574 15.7552L73.1641 6.45145H78.2344L70.5078 15.6604H73.9365L78.2354 21.8001H73.4932L69.791 16.513L65.3574 21.7991L65.3555 21.8001H61.4727V0.20047H65.3574V15.7552ZM84.999 15.7561L92.8066 6.45145H97.877L90.1494 15.6604H93.5791L97.877 21.8001H93.1357L89.4336 16.5139L84.999 21.7991L84.998 21.8001H81.1152V0.20047H84.999V15.7561ZM14.3242 3.90359H4.80664V9.12332H13.5791V12.8255H4.80664V21.7991H0.741211V0.201447H14.3242V3.90359ZM32.7402 9.50906C31.5306 9.50906 30.5538 9.8959 29.7812 10.6663C29.0089 11.4374 28.5977 12.543 28.5977 13.9827V14.2913C28.5977 15.7312 28.9829 16.8376 29.7812 17.6087C30.5524 18.3798 31.5566 18.7659 32.7402 18.7659C33.9237 18.7658 34.9258 18.3797 35.6982 17.6087C36.4708 16.8376 36.8818 15.7313 36.8818 14.2913V13.9827C36.8818 12.543 36.4962 11.4374 35.7246 10.6663C34.9521 9.89524 33.9497 9.50913 32.7402 9.50906Z" fill="#E3E7E8"/>
</svg>
