<svg width="137" height="36" viewBox="0 0 137 36" fill="none" xmlns="http://www.w3.org/2000/svg">
<path d="M71.7403 13.1135C73.2838 13.1136 74.6218 13.4223 75.8565 14.0393C77.0644 14.6556 78.0172 15.5571 78.7364 16.7131C79.4571 17.8694 79.792 19.285 79.792 20.9309V21.4192C79.792 23.0651 79.4319 24.4792 78.7364 25.637C78.0416 26.7937 77.091 27.6945 75.8565 28.3108C74.6477 28.9271 73.2838 29.2365 71.7403 29.2366C70.2226 29.2366 68.8595 28.9278 67.6241 28.3108C66.4159 27.6938 65.4622 26.7933 64.7422 25.637C64.0215 24.4807 63.6885 23.0651 63.6885 21.4192V20.9309C63.6885 19.285 64.0482 17.8709 64.7422 16.7131C65.437 15.5561 66.3886 14.6556 67.6241 14.0393C68.8329 13.4223 70.1967 13.1135 71.7403 13.1135ZM89.9004 13.0627C91.3922 13.0627 92.6281 13.3202 93.6563 13.8342C94.711 14.3483 95.5595 15.0424 96.2032 15.9417C96.8461 16.8416 97.2826 17.8448 97.4893 18.9758L93.7344 19.7727C93.6581 19.1565 93.4768 18.5896 93.168 18.1008C92.885 17.6128 92.473 17.227 91.959 16.9182C91.4451 16.6095 90.7758 16.4808 90.0049 16.4807C89.2338 16.4807 88.5123 16.6603 87.8946 16.9944C87.277 17.3291 86.7633 17.8433 86.4034 18.512C86.0426 19.1808 85.8633 20.0042 85.8633 20.9553V21.2639C85.8633 22.2417 86.0441 23.0391 86.4034 23.7073C86.7626 24.3752 87.2518 24.8901 87.8946 25.2249C88.5123 25.5596 89.2331 25.7385 90.0049 25.7385C91.1882 25.7384 92.0621 25.43 92.6797 24.8391C93.2975 24.2221 93.6838 23.4245 93.8379 22.4475L97.5928 23.3479C97.3358 24.4277 96.8726 25.4298 96.2305 26.3303C95.5876 27.2303 94.7384 27.9246 93.6836 28.4387C92.6281 28.9528 91.3677 29.2102 89.9278 29.2102L89.9024 29.2356H89.9004V29.2366C88.4088 29.2365 87.0711 28.9278 85.8623 28.3108C84.6536 27.6938 83.7009 26.7931 83.0069 25.637C82.3121 24.4807 81.9512 23.0388 81.9512 21.3684V20.9309C81.9512 19.2591 82.3106 17.8446 83.0069 16.6624C83.7016 15.4795 84.6528 14.6048 85.8623 13.9885C87.0704 13.3723 88.4088 13.0628 89.9004 13.0627ZM60.4483 28.801H56.5645V7.20142H60.4483V28.801ZM104.357 22.7551L112.164 13.4514H117.234L109.508 22.6604H112.937L117.235 28.8H112.493L108.791 23.5129L104.357 28.7991L104.355 28.8H100.473V7.20044H104.357V22.7551ZM123.999 22.7561L131.807 13.4514H136.877L129.149 22.6604H132.579L136.877 28.8H132.136L128.434 23.5139L123.999 28.7991L123.998 28.8H120.115V7.20044H123.999V22.7561ZM53.3242 10.9036H43.8067V16.1233H52.5791V19.8254H43.8067V28.7991H39.7412V7.20142H53.3242V10.9036ZM71.7403 16.509C70.5307 16.509 69.5538 16.8959 68.7813 17.6663C68.009 18.4373 67.5977 19.543 67.5977 20.9827V21.2913C67.5977 22.7312 67.9829 23.8375 68.7813 24.6086C69.5524 25.3798 70.5566 25.7659 71.7403 25.7659C72.9238 25.7658 73.9258 25.3797 74.6983 24.6086C75.4708 23.8375 75.8819 22.7312 75.8819 21.2913V20.9827C75.8818 19.543 75.4962 18.4373 74.7246 17.6663C73.9522 16.8952 72.9497 16.5091 71.7403 16.509Z" fill="#E3E7E8"/>
<path d="M8.88184 21.6006H16.9248L25.3418 33.6221L23.3467 36H15.8838L7.20215 23.6016H0V18.0127L15.1133 0H27.0059L8.88184 21.6006ZM22.9541 12.0244C24.2727 12.0244 25.3418 13.0935 25.3418 14.4121C25.3416 15.7306 24.2726 16.7988 22.9541 16.7988C21.6357 16.7987 20.5666 15.7305 20.5664 14.4121C20.5664 13.0936 21.6356 12.0245 22.9541 12.0244Z" fill="url(#paint0_linear_6483_1610)"/>
<defs>
<linearGradient id="paint0_linear_6483_1610" x1="13.503" y1="1.67638e-08" x2="12.7735" y2="35.9852" gradientUnits="userSpaceOnUse">
<stop stop-color="#19E48B"/>
<stop offset="1" stop-color="#00997C"/>
</linearGradient>
</defs>
</svg>
