<?xml version="1.0" encoding="UTF-8" standalone="no"?>
<svg
   width="40"
   height="40"
   viewBox="0 0 40 40"
   fill="none"
   version="1.1"
   id="svg1"
   sodipodi:docname="instagram_no_bg.svg"
   inkscape:version="1.4 (86a8ad7, 2024-10-11)"
   xmlns:inkscape="http://www.inkscape.org/namespaces/inkscape"
   xmlns:sodipodi="http://sodipodi.sourceforge.net/DTD/sodipodi-0.dtd"
   xmlns="http://www.w3.org/2000/svg"
   xmlns:svg="http://www.w3.org/2000/svg">
  <defs
     id="defs1" />
  <sodipodi:namedview
     id="namedview1"
     pagecolor="#ffffff"
     bordercolor="#000000"
     borderopacity="0.25"
     inkscape:showpageshadow="2"
     inkscape:pageopacity="0.0"
     inkscape:pagecheckerboard="0"
     inkscape:deskcolor="#d1d1d1"
     inkscape:zoom="26.075"
     inkscape:cx="19.980825"
     inkscape:cy="13.863854"
     inkscape:window-width="2400"
     inkscape:window-height="1261"
     inkscape:window-x="-9"
     inkscape:window-y="-9"
     inkscape:window-maximized="1"
     inkscape:current-layer="svg1" />
  <rect
     width="40"
     height="40"
     rx="20"
     fill="#212529"
     id="rect1"
     style="fill:none" />
  <path
     fill-rule="evenodd"
     clip-rule="evenodd"
     d="M24 11.2427H16C13.2386 11.2427 11 13.4813 11 16.2427V24.2427C11 27.0041 13.2386 29.2427 16 29.2427H24C26.7614 29.2427 29 27.0041 29 24.2427V16.2427C29 13.4813 26.7614 11.2427 24 11.2427ZM27.25 24.2427C27.2445 26.0353 25.7926 27.4872 24 27.4927H16C14.2074 27.4872 12.7555 26.0353 12.75 24.2427V16.2427C12.7555 14.45 14.2074 12.9982 16 12.9927H24C25.7926 12.9982 27.2445 14.45 27.25 16.2427V24.2427ZM24.75 16.4927C25.3023 16.4927 25.75 16.045 25.75 15.4927C25.75 14.9404 25.3023 14.4927 24.75 14.4927C24.1977 14.4927 23.75 14.9404 23.75 15.4927C23.75 16.045 24.1977 16.4927 24.75 16.4927ZM20 15.7427C17.5147 15.7427 15.5 17.7574 15.5 20.2427C15.5 22.728 17.5147 24.7427 20 24.7427C22.4853 24.7427 24.5 22.728 24.5 20.2427C24.5027 19.0484 24.0294 17.9022 23.1849 17.0578C22.3404 16.2133 21.1943 15.74 20 15.7427ZM17.25 20.2427C17.25 21.7615 18.4812 22.9927 20 22.9927C21.5188 22.9927 22.75 21.7615 22.75 20.2427C22.75 18.7239 21.5188 17.4927 20 17.4927C18.4812 17.4927 17.25 18.7239 17.25 20.2427Z"
     fill="#C5CFD2"
     id="path1"
     inkscape:export-filename="C:\My Big Projects\Flockk\Flockk\public\social_links\Instagram_no_bg.png"
     inkscape:export-xdpi="96"
     inkscape:export-ydpi="96" />
</svg>
