<?xml version="1.0" encoding="UTF-8" standalone="no"?>
<!-- Generator: Adobe Illustrator 27.5.0, SVG Export Plug-In . SVG Version: 6.00 Build 0)  -->

<svg
   version="1.1"
   id="PRINT"
   x="0px"
   y="0px"
   viewBox="0 0 184337 77316"
   xml:space="preserve"
   width="184337"
   height="77316"
   xmlns="http://www.w3.org/2000/svg"
   xmlns:svg="http://www.w3.org/2000/svg"><defs
   id="defs4" />
<g
   id="g4"
   transform="translate(-32831.5,-86342)">
	
	<g
   id="CUSTOM-group_00000090265893826830022630000006606609931746464415_">
		<path
   style="fill:#8f99f2"
   d="m 216.125,268.43 h 70.802 c 0,0 8.151,5.541 0,16.728 -8.151,11.188 -1.652,25.359 -5.274,32.178 -3.623,6.819 -16.941,5.434 -41.235,5.967 -24.293,0.533 -27.49,-4.432 -27.17,-16.653 0.32,-12.222 0.746,-21.278 0.746,-21.278 0,0 -7.334,-10.35 -4.368,-15.343 2.965,-4.994 6.499,-1.599 6.499,-1.599 z"
   id="path1" />
		<g
   id="g2">
			<path
   d="m 293.887,275.124 c 0,-5.756 -4.683,-10.438 -10.438,-10.438 h -16.701 v -3.479 c 0,-5.756 -4.683,-10.438 -10.438,-10.438 h -13.918 c -5.756,0 -10.438,4.683 -10.438,10.438 v 3.479 h -16.701 c -5.756,0 -10.438,4.683 -10.438,10.438 0,5.47 2.628,10.643 6.959,13.889 v 27.865 c 0,5.756 4.682,10.438 10.438,10.438 h 54.279 c 5.756,0 10.438,-4.683 10.438,-10.438 v -27.865 c 4.329,-3.246 6.958,-8.419 6.958,-13.889 z m -54.976,-13.918 c 0,-1.919 1.561,-3.479 3.479,-3.479 h 13.918 c 1.919,0 3.479,1.561 3.479,3.479 v 3.479 H 238.91 v -3.479 z m 37.579,59.151 h -54.28 c -1.919,0 -3.479,-1.561 -3.479,-3.479 v -23.934 c 8.251,3.936 17.204,6.067 27.14,6.466 v 3.55 c 0,1.922 1.558,3.479 3.48,3.479 1.922,0 3.479,-1.558 3.479,-3.479 v -3.55 c 9.935,-0.399 18.889,-2.53 27.14,-6.466 v 23.934 c -0.001,1.918 -1.562,3.479 -3.48,3.479 z m 5.392,-36.326 c -8.64,5.169 -18.175,7.934 -29.053,8.414 v -3.404 c 0,-1.922 -1.558,-3.479 -3.479,-3.479 -1.922,0 -3.48,1.558 -3.48,3.479 v 3.404 c -10.878,-0.48 -20.412,-3.245 -29.053,-8.414 -3.159,-1.89 -5.046,-5.22 -5.046,-8.907 0,-1.919 1.561,-3.479 3.479,-3.479 h 68.197 c 1.919,0 3.48,1.561 3.48,3.479 10e-4,3.687 -1.886,7.017 -5.045,8.907 z"
   id="path2" />
		</g>
	</g>
	<g
   id="CUSTOM-group">
		<path
   d="M 431.337,290.783 H 306.729 c -1.657,0 -3,-1.343 -3,-3 0,-1.657 1.343,-3 3,-3 H 428.337 V 178.684 H 251.31 c -1.657,0 -3,-1.343 -3,-3 0,-1.657 1.343,-3 3,-3 h 180.027 c 1.657,0 3,1.343 3,3 v 112.099 c 0,1.657 -1.343,3 -3,3 z"
   id="path3" />
		<path
   style="fill:#8f99f2"
   d="M 197.092,290.783 H 68.663 c -1.657,0 -3,-1.343 -3,-3 V 175.684 c 0,-1.657 1.343,-3 3,-3 H 251.31 c 1.657,0 3,1.343 3,3 0,1.657 -1.343,3 -3,3 H 71.663 v 106.099 h 125.43 c 1.657,0 3,1.343 3,3 -10e-4,1.657 -1.344,3 -3.001,3 z"
   id="path4" />
	</g>
	
		<text
   transform="translate(117.9924,234.1338)"
   style="font-size:38.2225px;font-family:FredokaOne-Regular;letter-spacing:11"
   id="text4">Graphismo</text>
</g>
</svg>
