<svg width="365" height="36" viewBox="0 0 365 36" fill="none" xmlns="http://www.w3.org/2000/svg">
<path d="M71.7402 13.1136C73.2838 13.1136 74.6217 13.4223 75.8564 14.0393C77.0643 14.6556 78.0171 15.5571 78.7363 16.7132C79.457 17.8695 79.792 19.2851 79.792 20.9309V21.4192C79.792 23.0651 79.4318 24.4793 78.7363 25.637C78.0416 26.7938 77.091 27.6946 75.8564 28.3108C74.6477 28.9271 73.2838 29.2366 71.7402 29.2366C70.2226 29.2366 68.8595 28.9278 67.624 28.3108C66.4159 27.6938 65.4622 26.7933 64.7422 25.637C64.0215 24.4807 63.6885 23.0651 63.6885 21.4192V20.9309C63.6885 19.2851 64.0481 17.8709 64.7422 16.7132C65.437 15.5562 66.3885 14.6556 67.624 14.0393C68.8328 13.4224 70.1967 13.1136 71.7402 13.1136ZM89.9004 13.0628C91.3922 13.0628 92.6281 13.3202 93.6562 13.8343C94.7109 14.3483 95.5595 15.0425 96.2031 15.9417C96.8461 16.8416 97.2826 17.8448 97.4893 18.9759L93.7344 19.7727C93.658 19.1565 93.4768 18.5897 93.168 18.1009C92.885 17.6128 92.473 17.2271 91.959 16.9182C91.445 16.6095 90.7757 16.4808 90.0049 16.4807C89.2338 16.4807 88.5123 16.6603 87.8945 16.9944C87.277 17.3292 86.7633 17.8434 86.4033 18.512C86.0426 19.1809 85.8633 20.0042 85.8633 20.9554V21.2639C85.8633 22.2417 86.044 23.0392 86.4033 23.7073C86.7625 24.3752 87.2518 24.8901 87.8945 25.2249C88.5123 25.5597 89.2331 25.7386 90.0049 25.7386C91.1882 25.7385 92.062 25.43 92.6797 24.8391C93.2974 24.2221 93.6838 23.4246 93.8379 22.4475L97.5928 23.3479C97.3358 24.4277 96.8725 25.4298 96.2305 26.3304C95.5875 27.2303 94.7384 27.9247 93.6836 28.4388C92.6281 28.9528 91.3677 29.2102 89.9277 29.2102L89.9023 29.2356H89.9004V29.2366C88.4087 29.2365 87.0711 28.9278 85.8623 28.3108C84.6535 27.6938 83.7009 26.7932 83.0068 25.637C82.312 24.4807 81.9512 23.0388 81.9512 21.3684V20.9309C81.9512 19.2591 82.3106 17.8446 83.0068 16.6624C83.7016 15.4795 84.6528 14.6048 85.8623 13.9886C87.0703 13.3723 88.4087 13.0628 89.9004 13.0628ZM60.4482 28.8011H56.5645V7.20145H60.4482V28.8011ZM104.357 22.7552L112.164 13.4514H117.234L109.508 22.6604H112.937L117.235 28.8001H112.493L108.791 23.513L104.357 28.7991L104.355 28.8001H100.473V7.20047H104.357V22.7552ZM123.999 22.7561L131.807 13.4514H136.877L129.149 22.6604H132.579L136.877 28.8001H132.136L128.434 23.5139L123.999 28.7991L123.998 28.8001H120.115V7.20047H123.999V22.7561ZM53.3242 10.9036H43.8066V16.1233H52.5791V19.8255H43.8066V28.7991H39.7412V7.20145H53.3242V10.9036ZM71.7402 16.5091C70.5306 16.5091 69.5538 16.8959 68.7812 17.6663C68.0089 18.4374 67.5977 19.543 67.5977 20.9827V21.2913C67.5977 22.7312 67.9829 23.8376 68.7812 24.6087C69.5524 25.3798 70.5566 25.7659 71.7402 25.7659C72.9237 25.7658 73.9258 25.3797 74.6982 24.6087C75.4708 23.8376 75.8818 22.7313 75.8818 21.2913V20.9827C75.8818 19.543 75.4962 18.4374 74.7246 17.6663C73.9521 16.8952 72.9497 16.5091 71.7402 16.5091Z" fill="#E3E7E8"/>
<path d="M8.88184 21.6006H16.9248L25.3418 33.6221L23.3467 36H15.8838L7.20215 23.6016H0V18.0127L15.1133 0H27.0059L8.88184 21.6006ZM22.9541 12.0244C24.2727 12.0244 25.3418 13.0935 25.3418 14.4121C25.3416 15.7306 24.2726 16.7988 22.9541 16.7988C21.6357 16.7987 20.5666 15.7305 20.5664 14.4121C20.5664 13.0936 21.6356 12.0245 22.9541 12.0244Z" fill="url(#paint0_linear_4066_4159)"/>
<defs>
<linearGradient id="paint0_linear_4066_4159" x1="13.503" y1="1.67638e-08" x2="12.7735" y2="35.9852" gradientUnits="userSpaceOnUse">
<stop stop-color="#19E48B"/>
<stop offset="1" stop-color="#00997C"/>
</linearGradient>
</defs>
</svg>
