<svg width="40" height="34" viewBox="0 0 40 34" fill="none" xmlns="http://www.w3.org/2000/svg">
<path d="M6.66667 15.8895L0 12.0007L20 0.333984L40 12.0007V26.1673H36.6667V13.9452L33.3333 15.8895V27.0195L32.9623 27.478C29.9095 31.2505 25.2363 33.6673 20 33.6673C14.7636 33.6673 10.0905 31.2505 7.03772 27.478L6.66667 27.0195V15.8895ZM10 17.834V25.8202C12.4453 28.5907 16.0185 30.334 20 30.334C23.9815 30.334 27.5547 28.5907 30 25.8202V17.834L20 23.6673L10 17.834ZM6.61545 12.0007L20 19.8083L33.3845 12.0007L20 4.193L6.61545 12.0007Z" fill="#23F399"/>
</svg>
