<?xml version="1.0" encoding="UTF-8" standalone="no"?>
<svg
   width="31.76082"
   height="35.029415"
   viewBox="0 0 31.76082 35.029415"
   fill="none"
   version="1.1"
   id="svg3"
   sodipodi:docname="Stack-Line--Streamline-Remix.svg"
   xmlns:inkscape="http://www.inkscape.org/namespaces/inkscape"
   xmlns:sodipodi="http://sodipodi.sourceforge.net/DTD/sodipodi-0.dtd"
   xmlns="http://www.w3.org/2000/svg"
   xmlns:svg="http://www.w3.org/2000/svg">
  <sodipodi:namedview
     id="namedview3"
     pagecolor="#ffffff"
     bordercolor="#000000"
     borderopacity="0.25"
     inkscape:showpageshadow="2"
     inkscape:pageopacity="0.0"
     inkscape:pagecheckerboard="0"
     inkscape:deskcolor="#d1d1d1">
    <inkscape:page
       x="0"
       y="0"
       width="31.76082"
       height="35.029415"
       id="page2"
       margin="0"
       bleed="0" />
  </sodipodi:namedview>
  <g
     filter="url(#filter0_d_6431_1836)"
     id="g1"
     transform="translate(-8.1201182,-8.9433575)">
    <path
       d="m 37.4728,32.333 2.0035,1.2021 c 0.3946,0.2369 0.5225,0.7487 0.2858,1.1434 -0.0705,0.1173 -0.1685,0.2155 -0.2858,0.2858 l -14.6184,8.7708 c -0.5276,0.3169 -1.1871,0.3169 -1.7148,0 L 8.52483,34.9643 C 8.13018,34.7275 8.00221,34.2156 8.239,33.821 8.30938,33.7036 8.40753,33.6055 8.52483,33.5351 l 2.00347,-1.2021 13.4723,8.0833 z m 0,-7.8334 2.0035,1.2022 c 0.3946,0.2368 0.5225,0.7487 0.2858,1.1433 -0.0705,0.1174 -0.1685,0.2155 -0.2858,0.2859 L 24.0006,36.4163 8.52483,27.131 C 8.13018,26.8941 8.00221,26.3823 8.239,25.9876 8.30938,25.8703 8.40753,25.7721 8.52483,25.7018 L 10.5283,24.4996 24.0006,32.583 Z M 24.8579,9.18086 39.4763,17.9518 c 0.3946,0.2368 0.5225,0.7487 0.2858,1.1433 -0.0705,0.1173 -0.1685,0.2155 -0.2858,0.2858 L 24.0006,28.6663 8.52483,19.3809 C 8.13018,19.1442 8.00221,18.6323 8.239,18.2376 8.30938,18.1203 8.40753,18.0222 8.52483,17.9518 L 23.1431,9.18086 c 0.5277,-0.31667 1.1872,-0.31667 1.7148,0 z m -0.8573,3.37284 -10.1879,6.1127 10.1879,6.1127 10.1878,-6.1127 z"
       fill="#23f399"
       id="path1" />
  </g>
  <defs
     id="defs3">
    <filter
       id="filter0_d_6431_1836"
       x="-1"
       y="-1"
       width="56"
       height="56"
       filterUnits="userSpaceOnUse"
       color-interpolation-filters="sRGB">
      <feFlood
         flood-opacity="0"
         result="BackgroundImageFix"
         id="feFlood1" />
      <feColorMatrix
         in="SourceAlpha"
         type="matrix"
         values="0 0 0 0 0 0 0 0 0 0 0 0 0 0 0 0 0 0 127 0"
         result="hardAlpha"
         id="feColorMatrix1" />
      <feOffset
         id="feOffset1" />
      <feGaussianBlur
         stdDeviation="4"
         id="feGaussianBlur1" />
      <feComposite
         in2="hardAlpha"
         operator="out"
         id="feComposite1" />
      <feColorMatrix
         type="matrix"
         values="0 0 0 0 0.137255 0 0 0 0 0.952941 0 0 0 0 0.6 0 0 0 0.3 0"
         id="feColorMatrix2" />
      <feBlend
         mode="normal"
         in2="BackgroundImageFix"
         result="effect1_dropShadow_6431_1836"
         id="feBlend2" />
      <feBlend
         mode="normal"
         in="SourceGraphic"
         in2="effect1_dropShadow_6431_1836"
         result="shape"
         id="feBlend3" />
    </filter>
  </defs>
</svg>
