<?xml version="1.0" encoding="UTF-8" standalone="no"?>
<svg
   width="30"
   height="30"
   viewBox="0 0 30 30"
   fill="none"
   version="1.1"
   id="svg3"
   sodipodi:docname="Aed-Line--Streamline-Remix.svg"
   xmlns:inkscape="http://www.inkscape.org/namespaces/inkscape"
   xmlns:sodipodi="http://sodipodi.sourceforge.net/DTD/sodipodi-0.dtd"
   xmlns="http://www.w3.org/2000/svg"
   xmlns:svg="http://www.w3.org/2000/svg">
  <sodipodi:namedview
     id="namedview3"
     pagecolor="#ffffff"
     bordercolor="#000000"
     borderopacity="0.25"
     inkscape:showpageshadow="2"
     inkscape:pageopacity="0.0"
     inkscape:pagecheckerboard="0"
     inkscape:deskcolor="#d1d1d1">
    <inkscape:page
       x="0"
       y="0"
       width="30"
       height="30"
       id="page2"
       margin="0"
       bleed="0" />
  </sodipodi:namedview>
  <g
     filter="url(#filter0_d_6431_1844)"
     id="g1"
     transform="translate(-8,-8.5)">
    <path
       d="m 13,11.8333 c -0.9205,0 -1.6667,0.7462 -1.6667,1.6667 v 20 c 0,0.9205 0.7462,1.6667 1.6667,1.6667 h 20 c 0.9205,0 1.6667,-0.7462 1.6667,-1.6667 v -20 c 0,-0.9205 -0.7462,-1.6667 -1.6667,-1.6667 H 29.921381 Z M 8,13.5 c 0,-2.7614 2.2386,-5 5,-5 h 20 c 2.7615,0 5,2.2386 5,5 v 20 c 0,2.7615 -2.2385,5 -5,5 H 13 c -2.7614,0 -5,-2.2385 -5,-5 z m 21.6667,8.3333 h -5 V 13.5 l -8.3334,11.6667 h 5 V 33.5 Z"
       fill="#23f399"
       id="path1"
       sodipodi:nodetypes="sssssssscssssssssssccccccc" />
  </g>
  <defs
     id="defs3">
    <filter
       id="filter0_d_6431_1844"
       x="-2"
       y="-4.5"
       width="56"
       height="56"
       filterUnits="userSpaceOnUse"
       color-interpolation-filters="sRGB">
      <feFlood
         flood-opacity="0"
         result="BackgroundImageFix"
         id="feFlood1" />
      <feColorMatrix
         in="SourceAlpha"
         type="matrix"
         values="0 0 0 0 0 0 0 0 0 0 0 0 0 0 0 0 0 0 127 0"
         result="hardAlpha"
         id="feColorMatrix1" />
      <feOffset
         id="feOffset1" />
      <feGaussianBlur
         stdDeviation="4"
         id="feGaussianBlur1" />
      <feComposite
         in2="hardAlpha"
         operator="out"
         id="feComposite1" />
      <feColorMatrix
         type="matrix"
         values="0 0 0 0 0.137255 0 0 0 0 0.952941 0 0 0 0 0.6 0 0 0 0.3 0"
         id="feColorMatrix2" />
      <feBlend
         mode="normal"
         in2="BackgroundImageFix"
         result="effect1_dropShadow_6431_1844"
         id="feBlend2" />
      <feBlend
         mode="normal"
         in="SourceGraphic"
         in2="effect1_dropShadow_6431_1844"
         result="shape"
         id="feBlend3" />
    </filter>
  </defs>
</svg>
