<svg id="4066:288" layer-name="Placeholder Logo" data-component-name="Placeholder Logo" data-variant-name="Logo=2, Alternate=False" width="121" height="48" viewBox="0 0 121 48" fill="none" xmlns="http://www.w3.org/2000/svg" class="logo" style="width: 120px; height: 48px; aspect-ratio: 5/2; position: relative; shrink: 0"> <path fill-rule="evenodd" clip-rule="evenodd" d="M33.2594 14.3569L23.3941 33.6427H14.1277L18.2564 25.6498H18.0711C14.665 30.0714 9.58299 32.9822 2.34192 33.6427V25.7605C2.34192 25.7605 6.97421 25.4869 9.6974 22.6238H2.34192V14.3571H10.6087V21.1564L10.7942 21.1556L14.1724 14.3571H20.4243V21.1133L20.6098 21.113L24.1146 14.3569H33.2594Z" fill="#96A8AE"></path> <path d="M87.0563 31.514H89.7188V16.2319H87.0563V31.514Z" fill="#96A8AE"></path> <path fill-rule="evenodd" clip-rule="evenodd" d="M72.3787 31.358C72.9573 31.5985 73.5457 31.7188 74.1439 31.7188C75.1321 31.7188 76.0163 31.4783 76.7966 30.9971C77.5767 30.516 78.1814 29.8529 78.6105 29.0077C79.0396 28.156 79.2541 27.1904 79.2541 26.1112C79.2541 25.0319 79.0331 24.0664 78.591 23.2147C78.1488 22.363 77.5345 21.7031 76.7477 21.235C75.9611 20.7604 75.067 20.5263 74.0658 20.5328C73.4287 20.5328 72.8176 20.6563 72.2324 20.9034C71.6472 21.1505 71.1596 21.5016 70.7695 21.9567C70.7394 21.9913 70.7102 22.0263 70.6818 22.0617V16.2418H68.0096V31.5141H70.6623L70.6569 30.0874C70.7255 30.1715 70.7989 30.2536 70.8768 30.334C71.2994 30.7696 71.8 31.1109 72.3787 31.358ZM75.1094 28.8907C74.6737 29.1572 74.1764 29.2905 73.6172 29.2905C73.0645 29.2905 72.5574 29.1539 72.0959 28.8809C71.6342 28.6013 71.2669 28.221 70.9938 27.7398C70.7272 27.2588 70.5939 26.7126 70.5939 26.1014C70.5875 25.4903 70.7175 24.9442 70.984 24.463C71.2571 23.9754 71.6244 23.5983 72.0861 23.3318C72.5477 23.0587 73.0581 22.9254 73.6172 22.9319C74.1764 22.9254 74.6737 23.0554 75.1094 23.322C75.5514 23.5821 75.8895 23.9559 76.1236 24.4435C76.3641 24.9247 76.4845 25.4773 76.4845 26.1014C76.4845 26.7256 76.3641 27.2783 76.1236 27.7593C75.8895 28.2405 75.5514 28.6176 75.1094 28.8907Z" fill="#96A8AE"></path> <path d="M37.1164 17.1585H40.1592L42.8811 27.0988L45.7766 17.1585H48.3123L51.4525 26.8993L54.0662 17.1585H56.8554L52.7399 31.5141H50.1165L46.9232 21.998L43.9919 31.5141H41.3393L37.1164 17.1585Z" fill="#96A8AE"></path> <path fill-rule="evenodd" clip-rule="evenodd" d="M61.349 31.7675C60.2892 31.7741 59.3334 31.54 58.4818 31.0654C57.6365 30.5842 56.9702 29.9178 56.4825 29.0661C56.0014 28.2144 55.7608 27.2424 55.7608 26.1501C55.7608 25.0904 56.0079 24.1314 56.5021 23.2732C56.9961 22.415 57.6657 21.7453 58.511 21.2642C59.3563 20.7831 60.2989 20.5425 61.3392 20.5425C62.5095 20.5425 63.5335 20.8026 64.4112 21.3227C65.2954 21.8428 65.9553 22.5808 66.391 23.5365C66.833 24.4857 66.9924 25.5748 66.8688 26.8036H58.5152C58.5385 27.2931 58.6607 27.7385 58.8816 28.1397C59.1287 28.5817 59.4733 28.9263 59.9153 29.1734C60.3575 29.4205 60.8516 29.544 61.3978 29.544C61.8138 29.5375 62.2007 29.466 62.5582 29.3295C62.9159 29.1865 63.2181 28.9947 63.4652 28.754C63.7188 28.5135 63.8976 28.2405 64.0017 27.9349H66.7908C66.6218 28.6826 66.2837 29.349 65.7766 29.9341C65.2694 30.5128 64.6323 30.9646 63.8651 31.2897C63.0979 31.6147 62.2592 31.7741 61.349 31.7675ZM58.8914 24.1217C58.7356 24.3934 58.6276 24.6859 58.5675 24.9994H64.105C64.0648 24.6034 63.9425 24.2426 63.7383 23.9169C63.5042 23.5333 63.1857 23.2374 62.7826 23.0294C62.3795 22.8148 61.9244 22.7076 61.4173 22.7076C60.8776 22.7076 60.3868 22.8311 59.9446 23.0782C59.5025 23.3252 59.1514 23.6731 58.8914 24.1217Z" fill="#96A8AE"></path> <path d="M81.2147 20.7669C81.2147 19.8956 81.4129 19.1219 81.8095 18.4458C82.2061 17.7631 82.762 17.2332 83.4772 16.8561C84.1988 16.4725 85.0409 16.2742 86.003 16.2612V18.6311C85.5544 18.6376 85.1708 18.7318 84.8523 18.9139C84.5402 19.0894 84.2997 19.3463 84.1306 19.6843C83.975 19.9956 83.891 20.3564 83.8787 20.7669H85.9445V23.0197H83.8771V31.5141H81.2147V23.0197H79.4982V20.7669H81.2147Z" fill="#96A8AE"></path> <path fill-rule="evenodd" clip-rule="evenodd" d="M96.4865 31.748C95.4007 31.748 94.4287 31.5107 93.5705 31.0361C92.7188 30.5549 92.0492 29.8918 91.5616 29.0466C91.0804 28.1949 90.8398 27.2294 90.8398 26.1501C90.8398 25.0644 91.0804 24.0956 91.5616 23.2439C92.0492 22.3857 92.7188 21.7193 93.5705 21.2447C94.4287 20.77 95.4007 20.5327 96.4865 20.5327C97.5787 20.5327 98.5541 20.77 99.4122 21.2447C100.277 21.7193 100.95 22.3824 101.431 23.2341C101.912 24.0859 102.156 25.0578 102.162 26.1501C102.156 27.2294 101.912 28.1949 101.431 29.0466C100.956 29.8918 100.287 30.5549 99.4219 31.0361C98.5573 31.5107 97.5787 31.748 96.4865 31.748ZM96.4865 29.3002C97.0587 29.3002 97.5658 29.1701 98.0078 28.9101C98.45 28.6435 98.7913 28.2729 99.0319 27.7983C99.2725 27.3172 99.3927 26.7677 99.3927 26.1501C99.3927 25.526 99.2725 24.9733 99.0319 24.4922C98.7913 24.0111 98.45 23.6405 98.0078 23.3804C97.5658 23.1139 97.0587 22.9806 96.4865 22.9806C95.9209 22.9806 95.417 23.1139 94.9748 23.3804C94.5393 23.6405 94.2011 24.0111 93.9606 24.4922C93.7201 24.9733 93.6031 25.526 93.6095 26.1501C93.6095 26.7677 93.7298 27.3172 93.9704 27.7983C94.2174 28.2729 94.5555 28.6435 94.9846 28.9101C95.4202 29.1701 95.9209 29.3002 96.4865 29.3002Z" fill="#96A8AE"></path> <path d="M105.039 20.7668H102.075L105.283 31.514H107.877L109.988 24.6498L112.266 31.514H114.821L118.04 20.7668H115.358L113.532 27.4563L111.514 20.7668H108.921L106.913 27.6036L105.039 20.7668Z" fill="#96A8AE"></path> </svg>