<svg id="4066:290" layer-name="Placeholder Logo" data-component-name="Placeholder Logo" data-variant-name="Logo=2, Alternate=False" width="121" height="48" viewBox="0 0 121 48" fill="none" xmlns="http://www.w3.org/2000/svg" class="logo" style="width: 120px; height: 48px; aspect-ratio: 5/2; position: relative; shrink: 0"> <path fill-rule="evenodd" clip-rule="evenodd" d="M33.4595 14.3569L23.5942 33.6427H14.3278L18.4564 25.6498H18.2712C14.8651 30.0714 9.78306 32.9822 2.54199 33.6427V25.7605C2.54199 25.7605 7.17428 25.4869 9.89747 22.6238H2.54199V14.3571H10.8088V21.1564L10.9943 21.1556L14.3724 14.3571H20.6244V21.1133L20.8098 21.113L24.3147 14.3569H33.4595Z" fill="#96A8AE"></path> <path d="M87.2564 31.514H89.9188V16.2319H87.2564V31.514Z" fill="#96A8AE"></path> <path fill-rule="evenodd" clip-rule="evenodd" d="M72.5788 31.358C73.1574 31.5985 73.7458 31.7188 74.344 31.7188C75.3322 31.7188 76.2164 31.4783 76.9966 30.9971C77.7767 30.516 78.3815 29.8529 78.8106 29.0077C79.2397 28.156 79.4542 27.1904 79.4542 26.1112C79.4542 25.0319 79.2331 24.0664 78.7911 23.2147C78.3489 22.363 77.7345 21.7031 76.9478 21.235C76.1611 20.7604 75.2671 20.5263 74.2659 20.5328C73.6288 20.5328 73.0176 20.6563 72.4324 20.9034C71.8473 21.1505 71.3597 21.5016 70.9696 21.9567C70.9395 21.9913 70.9102 22.0263 70.8819 22.0617V16.2418H68.2097V31.5141H70.8624L70.857 30.0874C70.9256 30.1715 70.999 30.2536 71.0769 30.334C71.4994 30.7696 72.0001 31.1109 72.5788 31.358ZM75.3094 28.8907C74.8738 29.1572 74.3764 29.2905 73.8173 29.2905C73.2646 29.2905 72.7575 29.1539 72.2959 28.8809C71.8342 28.6013 71.467 28.221 71.1938 27.7398C70.9273 27.2588 70.794 26.7126 70.794 26.1014C70.7876 25.4903 70.9175 24.9442 71.1841 24.463C71.4572 23.9754 71.8245 23.5983 72.2862 23.3318C72.7477 23.0587 73.2582 22.9254 73.8173 22.9319C74.3764 22.9254 74.8738 23.0554 75.3094 23.322C75.7515 23.5821 76.0896 23.9559 76.3237 24.4435C76.5642 24.9247 76.6845 25.4773 76.6845 26.1014C76.6845 26.7256 76.5642 27.2783 76.3237 27.7593C76.0896 28.2405 75.7515 28.6176 75.3094 28.8907Z" fill="#96A8AE"></path> <path d="M37.3165 17.1585H40.3593L43.0811 27.0988L45.9767 17.1585H48.5124L51.6526 26.8993L54.2663 17.1585H57.0554L52.9399 31.5141H50.3165L47.1232 21.998L44.192 31.5141H41.5393L37.3165 17.1585Z" fill="#96A8AE"></path> <path fill-rule="evenodd" clip-rule="evenodd" d="M61.5491 31.7675C60.4892 31.7741 59.5335 31.54 58.6818 31.0654C57.8366 30.5842 57.1702 29.9178 56.6825 29.0661C56.2015 28.2144 55.9609 27.2424 55.9609 26.1501C55.9609 25.0904 56.208 24.1314 56.7021 23.2732C57.1962 22.415 57.8658 21.7453 58.7111 21.2642C59.5563 20.7831 60.499 20.5425 61.5392 20.5425C62.7096 20.5425 63.7335 20.8026 64.6113 21.3227C65.4955 21.8428 66.1554 22.5808 66.591 23.5365C67.0331 24.4857 67.1924 25.5748 67.0689 26.8036H58.7153C58.7386 27.2931 58.8608 27.7385 59.0817 28.1397C59.3288 28.5817 59.6733 28.9263 60.1154 29.1734C60.5576 29.4205 61.0516 29.544 61.5978 29.544C62.0139 29.5375 62.4008 29.466 62.7583 29.3295C63.116 29.1865 63.4182 28.9947 63.6653 28.754C63.9189 28.5135 64.0977 28.2405 64.2017 27.9349H66.9909C66.8218 28.6826 66.4838 29.349 65.9767 29.9341C65.4695 30.5128 64.8324 30.9646 64.0651 31.2897C63.298 31.6147 62.4593 31.7741 61.5491 31.7675ZM59.0914 24.1217C58.9357 24.3934 58.8277 24.6859 58.7675 24.9994H64.305C64.2649 24.6034 64.1426 24.2426 63.9384 23.9169C63.7043 23.5333 63.3857 23.2374 62.9827 23.0294C62.5796 22.8148 62.1245 22.7076 61.6173 22.7076C61.0777 22.7076 60.5868 22.8311 60.1447 23.0782C59.7026 23.3252 59.3515 23.6731 59.0914 24.1217Z" fill="#96A8AE"></path> <path d="M81.4147 20.7669C81.4147 19.8956 81.613 19.1219 82.0096 18.4458C82.4061 17.7631 82.9621 17.2332 83.6773 16.8561C84.3989 16.4725 85.2409 16.2742 86.2031 16.2612V18.6311C85.7545 18.6376 85.3709 18.7318 85.0524 18.9139C84.7403 19.0894 84.4997 19.3463 84.3307 19.6843C84.1751 19.9956 84.0911 20.3564 84.0788 20.7669H86.1446V23.0197H84.0772V31.5141H81.4147V23.0197H79.6983V20.7669H81.4147Z" fill="#96A8AE"></path> <path fill-rule="evenodd" clip-rule="evenodd" d="M96.6866 31.748C95.6008 31.748 94.6288 31.5107 93.7706 31.0361C92.9189 30.5549 92.2492 29.8918 91.7616 29.0466C91.2804 28.1949 91.0399 27.2294 91.0399 26.1501C91.0399 25.0644 91.2804 24.0956 91.7616 23.2439C92.2492 22.3857 92.9189 21.7193 93.7706 21.2447C94.6288 20.77 95.6008 20.5327 96.6866 20.5327C97.7788 20.5327 98.7541 20.77 99.6122 21.2447C100.477 21.7193 101.15 22.3824 101.631 23.2341C102.112 24.0859 102.356 25.0578 102.363 26.1501C102.356 27.2294 102.112 28.1949 101.631 29.0466C101.156 29.8918 100.487 30.5549 99.622 31.0361C98.7573 31.5107 97.7788 31.748 96.6866 31.748ZM96.6866 29.3002C97.2587 29.3002 97.7658 29.1701 98.2079 28.9101C98.6501 28.6435 98.9913 28.2729 99.232 27.7983C99.4725 27.3172 99.5927 26.7677 99.5927 26.1501C99.5927 25.526 99.4725 24.9733 99.232 24.4922C98.9913 24.0111 98.6501 23.6405 98.2079 23.3804C97.7658 23.1139 97.2587 22.9806 96.6866 22.9806C96.121 22.9806 95.6171 23.1139 95.1749 23.3804C94.7394 23.6405 94.4012 24.0111 94.1607 24.4922C93.9201 24.9733 93.8031 25.526 93.8096 26.1501C93.8096 26.7677 93.9299 27.3172 94.1704 27.7983C94.4175 28.2729 94.7555 28.6435 95.1847 28.9101C95.6203 29.1701 96.121 29.3002 96.6866 29.3002Z" fill="#96A8AE"></path> <path d="M105.239 20.7668H102.275L105.483 31.514H108.077L110.188 24.6498L112.466 31.514H115.021L118.24 20.7668H115.558L113.732 27.4563L111.715 20.7668H109.121L107.113 27.6036L105.239 20.7668Z" fill="#96A8AE"></path> </svg>