<?xml version="1.0" encoding="UTF-8" standalone="no"?>
<svg
   width="31.66651"
   height="36.666801"
   viewBox="0 0 31.66651 36.666801"
   fill="none"
   version="1.1"
   id="svg3"
   sodipodi:docname="ic_analytics.svg"
   xmlns:inkscape="http://www.inkscape.org/namespaces/inkscape"
   xmlns:sodipodi="http://sodipodi.sourceforge.net/DTD/sodipodi-0.dtd"
   xmlns="http://www.w3.org/2000/svg"
   xmlns:svg="http://www.w3.org/2000/svg">
  <sodipodi:namedview
     id="namedview3"
     pagecolor="#ffffff"
     bordercolor="#000000"
     borderopacity="0.25"
     inkscape:showpageshadow="2"
     inkscape:pageopacity="0.0"
     inkscape:pagecheckerboard="0"
     inkscape:deskcolor="#d1d1d1">
    <inkscape:page
       x="0"
       y="0"
       width="31.66651"
       height="36.666801"
       id="page2"
       margin="0"
       bleed="0" />
  </sodipodi:namedview>
  <g
     clip-path="url(#clip0_6431_1916)"
     id="g3"
     transform="translate(-4.1669898,-1.6665)">
    <path
       d="m 27.0835,6.0415 v 27.5 c 0,3.0771 2.1229,4.7917 4.375,4.7917 2.0833,0 4.375,-1.4584 4.375,-4.7917 V 6.24984 c 0,-2.82084 -2.0833,-4.58334 -4.375,-4.58334 -2.2917,0 -4.375,1.94375 -4.375,4.375 z"
       fill="#23f399"
       id="path1" />
    <path
       d="m 15.6252,20 v 13.5417 c 0,3.077 2.123,4.7916 4.375,4.7916 2.0834,0 4.375,-1.4583 4.375,-4.7916 V 20.2083 c 0,-2.8208 -2.0833,-4.5833 -4.375,-4.5833 -2.2916,0 -4.375,1.9437 -4.375,4.375 z"
       fill="#23f399"
       id="path2" />
    <path
       d="m 8.54199,38.333 c 2.41621,0 4.37501,-1.9587 4.37501,-4.375 0,-2.4162 -1.9588,-4.375 -4.37501,-4.375 -2.41624,0 -4.375,1.9588 -4.375,4.375 0,2.4163 1.95876,4.375 4.375,4.375 z"
       fill="#23f399"
       id="path3" />
  </g>
  <defs
     id="defs3">
    <clipPath
       id="clip0_6431_1916">
      <rect
         width="40"
         height="40"
         fill="#ffffff"
         id="rect3"
         x="0"
         y="0" />
    </clipPath>
  </defs>
</svg>
