<svg width="36" height="36" viewBox="0 0 36 36" fill="none" xmlns="http://www.w3.org/2000/svg">
<path d="M16.1733 0.500977L32.6724 2.85799L35.0294 19.3572L19.7088 34.6777C19.0579 35.3287 18.0028 35.3287 17.3518 34.6777L0.852664 18.1787C0.201781 17.5277 0.201781 16.4726 0.852664 15.8216L16.1733 0.500977ZM17.3518 4.03651L4.3882 17.0001L18.5303 31.1422L31.4939 18.1787L29.7263 5.80428L17.3518 4.03651ZM20.8874 14.6431C19.5856 13.3414 19.5856 11.2308 20.8874 9.92906C22.1891 8.62733 24.2996 8.62733 25.6014 9.92906C26.9031 11.2308 26.9031 13.3414 25.6014 14.6431C24.2996 15.9449 22.1891 15.9449 20.8874 14.6431Z" fill="#23F399"/>
</svg>
