<?xml version="1.0" encoding="UTF-8" standalone="no"?>
<!-- Generator: Adobe Illustrator 27.5.0, SVG Export Plug-In . SVG Version: 6.00 Build 0)  -->

<svg
   version="1.1"
   id="Layer_1"
   x="0px"
   y="0px"
   viewBox="0 0 300 300"
   xml:space="preserve"
   width="300"
   height="300"
   xmlns:xlink="http://www.w3.org/1999/xlink"
   xmlns="http://www.w3.org/2000/svg"
   xmlns:svg="http://www.w3.org/2000/svg">

<g transform="matrix(0.1157519,0,0,0.1157519,-80.509928,-87.293799)">
	<g>
		<defs><path id="SVGID_1_" d="m 1540.555,2678.25 c 385.725,-89.442 592.874,-278.657 676.969,-538.611 -118.322,16.181 -171.823,42.794 -223.634,52.311 -97.156,238.157 -294.39,398.582 -453.335,486.3" /></defs>
		<clipPath id="SVGID_00000004545422731033538520000011070970532524046750_">
			<use xlink:href="#SVGID_1_" style="overflow:visible" />
		</clipPath>
		<rect x="1540.5551" y="2139.6389" style="fill:#fafafa" width="676.96899" height="538.61102" clip-path="url(#SVGID_00000004545422731033538520000011070970532524046750_)" />
	</g>
	<g>
		<defs><path id="SVGID_00000034058806811573836100000011691621714839327881_" d="m 1699.186,2837.776 c 352.004,-181.318 506.417,-415.561 524.183,-688.2 -110.739,44.708 -156.079,83.63 -203.972,105.564 -35.776,254.712 -187.638,458.612 -320.211,582.636" /></defs>
		<clipPath id="SVGID_00000099663554298773801780000002073338125721823111_">
			<use xlink:href="#SVGID_00000034058806811573836100000011691621714839327881_" style="overflow:visible" />
		</clipPath>
		<rect x="1699.186" y="2149.5759" style="fill:#fafafa" width="524.18298" height="688.20001" clip-path="url(#SVGID_00000099663554298773801780000002073338125721823111_)" />
	</g>
	<g>
		<defs><path id="SVGID_00000078763327759310318600000012234539901563525776_" d="m 1931.942,2902.022 c 243.14,-224.747 315.237,-447.999 268.644,-671.663 -79.247,60.766 -107.086,102.259 -140.779,130.633 28.076,213.242 -48.743,411.474 -127.865,541.03" /></defs>
		<clipPath id="SVGID_00000132078587201905540080000000245888888171927454_">
			<use xlink:href="#SVGID_00000078763327759310318600000012234539901563525776_" style="overflow:visible" />
		</clipPath>
		<rect x="1931.942" y="2230.3601" style="fill:#fafafa" width="315.237" height="671.66302" clip-path="url(#SVGID_00000132078587201905540080000000245888888171927454_)" />
	</g>
	<g>
		<defs><path id="SVGID_00000167372417971982125830000016525022777321207987_" d="m 1071.983,1526.347 c 133.695,-622.793 962.653,167.097 1084.052,401.224 0,0 269.139,533.298 -69.78,951.962 224.685,-462.984 -147.001,-662.166 -477.11,-779.914 -368.351,-131.395 -312.557,-403.894 -442.091,-469.35 -64.057,-32.368 -132.119,0.045 -168.58,65.538 -9.688,-57.303 -4.519,-101.548 73.509,-169.46" /></defs>
		<clipPath id="SVGID_00000082353143797315056650000005078917921345291904_">
			<use xlink:href="#SVGID_00000167372417971982125830000016525022777321207987_" style="overflow:visible" />
		</clipPath>
		<rect x="988.78601" y="903.55499" style="fill:#fafafa" width="1436.387" height="1975.979" clip-path="url(#SVGID_00000082353143797315056650000005078917921345291904_)" />
	</g>
	<defs><filter id="Adobe_OpacityMaskFilter" filterUnits="userSpaceOnUse" x="998.47302" y="1522.905" width="1184.853" height="1291.884">
			<feColorMatrix type="matrix" values="1 0 0 0 0  0 1 0 0 0  0 0 1 0 0  0 0 0 1 0" />
		</filter></defs>
	
	<mask maskUnits="userSpaceOnUse" x="998.473" y="1522.905" width="1184.853" height="1291.884" id="SVGID_00000075856177566754082640000013316988877842160046_">
		<g style="filter:url(#Adobe_OpacityMaskFilter)">
			<rect x="998.47302" y="1522.905" style="fill:#fafafa" width="1184.853" height="1291.884" />
		</g>
	</mask>
	
	<path style="clip-rule:evenodd;fill:#fafafa;fill-rule:evenodd" d="m 2114.49,2814.789 c 160.899,-417.127 -191.055,-603.063 -505.346,-715.169 -368.351,-131.395 -312.557,-403.894 -442.091,-469.35 -64.057,-32.368 -132.119,0.045 -168.58,65.538 0,0 131.015,-423.699 666.564,55.427 10e-4,0 743.568,333.05 449.453,1063.554" mask="url(#SVGID_00000075856177566754082640000013316988877842160046_)" />
	<path style="fill:none;stroke:#fafafa;stroke-width:0.5669;stroke-miterlimit:22.9256" d="m 1226.833,1690.635 c 364.106,354.271 660.032,-997.415 1674.336,-857.07 -977.007,97.701 -931.95,1222.78 -1448.895,1186.551" />
	<g>
		<defs><path id="SVGID_00000140003128704323455100000005471168799753724091_" d="m 1781.524,2153.921 c 79.922,-197.392 60.718,-347.058 -27.667,-464.449 -29.469,57.07 -52.371,105.736 -64.207,131.479 52.853,135.45 88.834,272.597 91.874,332.97" /></defs>
		<clipPath id="SVGID_00000127009233924225362100000001995357025745231234_">
			<use xlink:href="#SVGID_00000140003128704323455100000005471168799753724091_" style="overflow:visible" />
		</clipPath>
		<rect x="1689.65" y="1689.472" style="fill:#fafafa" width="171.79601" height="464.44901" clip-path="url(#SVGID_00000127009233924225362100000001995357025745231234_)" />
	</g>
	<g>
		<defs><path id="SVGID_00000081614926209445568090000013066487787114762655_" d="m 1933.567,2183.486 c 81.25,-288.12 31.352,-494.279 -110.233,-644.682 -32.38,84.282 -56.88,155.808 -69.449,193.602 94.721,181.11 166.13,367.191 179.682,451.08" /></defs>
		<clipPath id="SVGID_00000117668707717935148160000014160394266745871033_">
			<use xlink:href="#SVGID_00000081614926209445568090000013066487787114762655_" style="overflow:visible" />
		</clipPath>
		<rect x="1753.885" y="1538.803" style="fill:#fafafa" width="260.93201" height="644.68201" clip-path="url(#SVGID_00000117668707717935148160000014160394266745871033_)" />
	</g>
	<g>
		<defs><path id="SVGID_00000098904642685191016980000004800918359863097530_" d="m 2153.463,2176.158 c 43.157,-328.278 -44.214,-546.006 -223.085,-688.138 -22.051,97.397 -46.694,162.162 -54.448,205.527 132.453,183.189 249.371,392.942 277.533,482.611" /></defs>
		<clipPath id="SVGID_00000132799830863707262800000008125447585414930619_">
			<use xlink:href="#SVGID_00000098904642685191016980000004800918359863097530_" style="overflow:visible" />
		</clipPath>
		<rect x="1875.929" y="1488.02" style="fill:#fafafa" width="320.69" height="688.13702" clip-path="url(#SVGID_00000132799830863707262800000008125447585414930619_)" />
	</g>
	<g>
		<defs><path id="SVGID_00000152254217376842457810000015878277366874229390_" d="m 2325.187,2166.191 c 59.235,-373.425 -72.183,-593.892 -322.924,-721.965 -19.359,35.664 -37.409,70.242 -53.689,102.267 176.24,206.439 343.97,505.191 376.613,619.698" /></defs>
		<clipPath id="SVGID_00000154384250782674897020000002317829631571374236_">
			<use xlink:href="#SVGID_00000152254217376842457810000015878277366874229390_" style="overflow:visible" />
		</clipPath>
		<rect x="1948.574" y="1444.225" style="fill:#fafafa" width="435.84799" height="721.966" clip-path="url(#SVGID_00000154384250782674897020000002317829631571374236_)" />
	</g>
	<g>
		<defs><path id="SVGID_00000087397932206117955550000002408956072274272185_" d="m 2656.18,2049.754 c -71.623,-430.01 -308.402,-603.659 -644.902,-629.005 -14.448,26.139 -28.213,51.85 -41.101,76.513 269.364,135.466 604.923,433.999 686.003,552.492" /></defs>
		<clipPath id="SVGID_00000049923297997757780680000000757053392015964088_">
			<use xlink:href="#SVGID_00000087397932206117955550000002408956072274272185_" style="overflow:visible" />
		</clipPath>
		<rect x="1970.178" y="1420.749" style="fill:#fafafa" width="686.00201" height="629.005" clip-path="url(#SVGID_00000049923297997757780680000000757053392015964088_)" />
	</g>
	<g>
		<defs><path id="SVGID_00000007419282304977839470000004250290739023911312_" d="m 2950.027,1843.032 c -219.679,-441.027 -529.064,-564.389 -896.081,-497.071 -22.094,37.423 -43.197,75.254 -62.75,111.638 350.24,61.348 827.178,280.351 958.831,385.433" /></defs>
		<clipPath id="SVGID_00000137839740914292532020000005188473202225821852_">
			<use xlink:href="#SVGID_00000007419282304977839470000004250290739023911312_" style="overflow:visible" />
		</clipPath>
		<rect x="1991.1949" y="1278.6429" style="fill:#fafafa" width="958.83197" height="564.38898" clip-path="url(#SVGID_00000137839740914292532020000005188473202225821852_)" />
	</g>
	<g>
		<defs><path id="SVGID_00000097484871992937459300000000655742986913656968_" d="m 3088.061,1592.559 c -287.92,-404.268 -615.429,-475.98 -970.413,-348.389 -24.979,37.378 -49.46,77.21 -72.746,117.24 356.47,-3.729 891.706,145.055 1043.159,231.149" /></defs>
		<clipPath id="SVGID_00000063603423257261239850000009162737950459081887_">
			<use xlink:href="#SVGID_00000097484871992937459300000000655742986913656968_" style="overflow:visible" />
		</clipPath>
		<rect x="2044.901" y="1116.579" style="fill:#fafafa" width="1043.16" height="475.98001" clip-path="url(#SVGID_00000063603423257261239850000009162737950459081887_)" />
	</g>
	<g>
		<defs><path id="SVGID_00000090987068061388743620000016946302934608503446_" d="m 3029.588,1308.533 c -291.147,-295.589 -570.865,-308.992 -846.927,-153.783 -26.203,32.582 -52.538,69.899 -78.216,109.458 287.197,-62.813 783.347,-8.714 925.143,44.325" /></defs>
		<clipPath id="SVGID_00000048486782353610273100000004196201055509359758_">
			<use xlink:href="#SVGID_00000090987068061388743620000016946302934608503446_" style="overflow:visible" />
		</clipPath>
		<rect x="2104.4451" y="999.54102" style="fill:#fafafa" width="925.14301" height="308.992" clip-path="url(#SVGID_00000048486782353610273100000004196201055509359758_)" />
	</g>
	<g>
		<defs><path id="SVGID_00000075163095098353288940000004787304114538843792_" d="m 1910.282,1635.979 c 191.031,-324.248 410.82,-744.408 990.888,-802.415 -591.47,-81.84 -938.663,343.672 -1197.543,642.412 -185.069,213.566 -325.006,362.343 -476.793,214.659 50.342,84.025 75.04,222.669 225.441,329.48 210.024,14.719 327.283,-162.252 458.007,-384.136" /></defs>
		<clipPath id="SVGID_00000164494910208123310770000004114124602833104022_">
			<use xlink:href="#SVGID_00000075163095098353288940000004787304114538843792_" style="overflow:visible" />
		</clipPath>
		<rect x="1226.833" y="751.724" style="fill:#fafafa" width="1674.3361" height="1283.11" clip-path="url(#SVGID_00000164494910208123310770000004114124602833104022_)" />
	</g>
	<g>
		<defs><path id="SVGID_00000150814081582351908050000003016483680832711317_" d="m 3090.56,1062.826 c -309.013,-219.299 -579.036,-116.31 -579.036,-116.31 -148.529,78.037 -261.792,187.273 -355.192,306.428 132.292,-166.748 771.754,-220.048 934.228,-190.118" /></defs>
		<clipPath id="SVGID_00000058569432699818240100000017429943833413830548_">
			<use xlink:href="#SVGID_00000150814081582351908050000003016483680832711317_" style="overflow:visible" />
		</clipPath>
		<rect x="2156.332" y="843.52698" style="fill:#fafafa" width="934.22699" height="409.41699" clip-path="url(#SVGID_00000058569432699818240100000017429943833413830548_)" />
	</g>
	<defs><filter id="Adobe_OpacityMaskFilter_00000116234336923814551900000002357443043486171804_" filterUnits="userSpaceOnUse" x="1297.7791" y="833.49597" width="1603.391" height="1187.475">
			<feColorMatrix type="matrix" values="1 0 0 0 0  0 1 0 0 0  0 0 1 0 0  0 0 0 1 0" />
		</filter></defs>
	
	<mask maskUnits="userSpaceOnUse" x="1297.779" y="833.496" width="1603.391" height="1187.475" id="SVGID_00000153664418380952707080000012931505656044216238_">
		<g style="filter:url(#Adobe_OpacityMaskFilter_00000116234336923814551900000002357443043486171804_)">
			<rect x="1297.778" y="833.49597" style="fill:#fafafa" width="1603.391" height="1187.476" />
		</g>
	</mask>
	
	<path style="clip-rule:evenodd;fill:#fafafa;fill-rule:evenodd" d="m 1823.334,1538.804 c -331.444,510.564 -525.558,299.938 -525.556,299.938 31.544,60.918 75.824,125.501 154.496,181.373 210.024,14.719 327.284,-162.252 458.007,-384.135 191.031,-324.248 410.82,-744.408 990.888,-802.415 -675.255,-8.066 -1077.835,705.239 -1077.835,705.239" mask="url(#SVGID_00000153664418380952707080000012931505656044216238_)" />
	<path style="fill:#fafafa" d="m 2900.311,3293.116 h 16.176 v -213.952 h -20.144 l -80.881,124.678 -81.795,-124.678 c -7.936,0 -11.598,0 -19.534,0 v 213.952 h 16.481 v -190.094 l 82.406,125.288 h 5.494 l 81.796,-125.288 v 190.094 z m -247.525,-213.951 v 132.766 c 0,91.563 -131.24,91.867 -131.24,0 v -132.766 h -16.176 v 132.766 c 0,112.012 163.592,111.707 163.592,0 v -132.766 z m -188.619,33.573 c -21.059,-31.436 -47.612,-36.32 -78.133,-36.32 -35.099,0 -82.101,14.04 -81.186,59.21 0,39.372 39.983,47.308 79.049,54.938 35.1,6.714 70.503,13.734 70.198,45.782 0,37.846 -41.814,45.17 -68.062,45.17 -26.247,0 -59.821,-12.819 -72.944,-38.761 l -14.651,7.325 c 16.481,32.658 54.327,46.392 87.595,46.392 35.709,0 84.238,-11.598 84.543,-59.821 0,-46.087 -42.73,-53.412 -83.933,-61.347 -36.014,-6.714 -65.314,-13.124 -65.314,-40.287 0,-34.184 39.677,-43.34 64.704,-43.34 24.112,0.305 49.139,3.968 64.705,28.995 z m -257.902,106.518 c 92.783,0 92.783,-140.091 0,-140.091 -31.131,0 -62.568,0 -93.699,0 v 213.952 h 16.482 v -73.861 z m 0,-124.831 c 71.114,0 71.114,109.875 0,109.875 h -77.217 v -109.875 z m -140.7,198.691 v -213.952 h -16.176 v 213.952 z m -160.845,0 h 40.288 v -213.341 h -46.087 l -66.841,91.715 -66.84,-91.715 h -46.392 v 213.341 h 40.288 v -155.097 l 68.062,92.936 h 7.935 l 69.588,-92.631 v 154.792 z m -217.309,-39.677 h -119.948 v -48.223 h 115.675 v -37.541 h -115.675 v -49.444 h 119.948 v -39.067 h -159.93 c 0,71.317 0,142.838 0,213.952 h 159.93 z m -263.395,-136.733 c 25.333,0 36.625,17.143 36.625,34.336 0,17.194 -10.988,34.336 -36.625,34.336 h -61.347 v -68.672 z m 87.595,173.663 -64.704,-72.945 c 40.593,-8.241 54.021,-37.846 54.021,-67.299 0,-37.083 -26.552,-70.656 -76.912,-70.961 -33.878,0.305 -67.756,0 -101.635,0 v 213.952 h 40.288 v -71.419 h 38.761 l 62.262,71.419 h 47.918 v -2.747 z m -328.71,-178.546 c 50.359,0 70.503,40.288 69.892,76.302 -0.61,35.099 -19.533,72.945 -69.892,72.945 -50.36,0 -69.283,-37.541 -70.198,-72.64 -0.916,-36.015 19.838,-76.607 70.198,-76.607 z m 0,-36.626 c -73.86,0 -109.875,56.463 -109.875,112.622 0,56.159 34.794,110.181 109.875,110.181 75.081,0 108.96,-55.243 109.57,-110.486 0.61,-55.853 -36.015,-112.317 -109.57,-112.317 z m -272.552,3.968 v 213.952 h 150.163 v -37.236 H 950.637 v -176.716 z" />
</g>
</svg>