<?xml version="1.0" encoding="UTF-8" standalone="no"?>
<svg
   width="40"
   height="33.333321"
   viewBox="0 0 40 33.333321"
   fill="none"
   version="1.1"
   id="svg3"
   sodipodi:docname="Graduation-Cap-Line--Streamline-Remix.svg"
   xmlns:inkscape="http://www.inkscape.org/namespaces/inkscape"
   xmlns:sodipodi="http://sodipodi.sourceforge.net/DTD/sodipodi-0.dtd"
   xmlns="http://www.w3.org/2000/svg"
   xmlns:svg="http://www.w3.org/2000/svg">
  <sodipodi:namedview
     id="namedview3"
     pagecolor="#ffffff"
     bordercolor="#000000"
     borderopacity="0.25"
     inkscape:showpageshadow="2"
     inkscape:pageopacity="0.0"
     inkscape:pagecheckerboard="0"
     inkscape:deskcolor="#d1d1d1">
    <inkscape:page
       x="0"
       y="0"
       width="40"
       height="33.333321"
       id="page2"
       margin="0"
       bleed="0" />
  </sodipodi:namedview>
  <g
     filter="url(#filter0_d_6431_1828)"
     id="g1"
     transform="translate(-8,-8.3339795)">
    <path
       d="M 14.6667,23.8895 8,20.0007 28,8.33398 48,20.0007 V 34.1673 H 44.6667 V 21.9452 l -3.3334,1.9443 v 11.13 l -0.371,0.4585 c -3.0528,3.7725 -7.726,6.1893 -12.9623,6.1893 -5.2364,0 -9.9095,-2.4168 -12.9623,-6.1893 l -0.371,-0.4585 z M 18,25.834 v 7.9862 c 2.4453,2.7705 6.0185,4.5138 10,4.5138 3.9815,0 7.5547,-1.7433 10,-4.5138 V 25.834 L 28,31.6673 Z M 14.6154,20.0007 28,27.8083 41.3845,20.0007 28,12.193 Z"
       fill="#23f399"
       id="path1" />
  </g>
  <defs
     id="defs3">
    <filter
       id="filter0_d_6431_1828"
       x="0"
       y="-3"
       width="59"
       height="56"
       filterUnits="userSpaceOnUse"
       color-interpolation-filters="sRGB">
      <feFlood
         flood-opacity="0"
         result="BackgroundImageFix"
         id="feFlood1" />
      <feColorMatrix
         in="SourceAlpha"
         type="matrix"
         values="0 0 0 0 0 0 0 0 0 0 0 0 0 0 0 0 0 0 127 0"
         result="hardAlpha"
         id="feColorMatrix1" />
      <feOffset
         id="feOffset1" />
      <feGaussianBlur
         stdDeviation="4"
         id="feGaussianBlur1" />
      <feComposite
         in2="hardAlpha"
         operator="out"
         id="feComposite1" />
      <feColorMatrix
         type="matrix"
         values="0 0 0 0 0.137255 0 0 0 0 0.952941 0 0 0 0 0.6 0 0 0 0.3 0"
         id="feColorMatrix2" />
      <feBlend
         mode="normal"
         in2="BackgroundImageFix"
         result="effect1_dropShadow_6431_1828"
         id="feBlend2" />
      <feBlend
         mode="normal"
         in="SourceGraphic"
         in2="effect1_dropShadow_6431_1828"
         result="shape"
         id="feBlend3" />
    </filter>
  </defs>
</svg>
