<?xml version="1.0" encoding="UTF-8" standalone="no"?>
<svg
   width="33.333019"
   height="33.518951"
   viewBox="0 0 33.333019 33.518951"
   fill="none"
   version="1.1"
   id="svg3"
   sodipodi:docname="Shake-Hands-Line--Streamline-Remix.svg"
   xmlns:inkscape="http://www.inkscape.org/namespaces/inkscape"
   xmlns:sodipodi="http://sodipodi.sourceforge.net/DTD/sodipodi-0.dtd"
   xmlns="http://www.w3.org/2000/svg"
   xmlns:svg="http://www.w3.org/2000/svg">
  <sodipodi:namedview
     id="namedview3"
     pagecolor="#ffffff"
     bordercolor="#000000"
     borderopacity="0.25"
     inkscape:showpageshadow="2"
     inkscape:pageopacity="0.0"
     inkscape:pagecheckerboard="0"
     inkscape:deskcolor="#d1d1d1">
    <inkscape:page
       x="0"
       y="0"
       width="33.333019"
       height="33.518951"
       id="page2"
       margin="0"
       bleed="0" />
  </sodipodi:namedview>
  <g
     filter="url(#filter0_d_6431_1852)"
     id="g1"
     transform="translate(-8.3339797,-8.6445333)">
    <path
       d="m 24.7692,9.48429 c 1.6473,-1.09824 3.7875,-1.121 5.4578,-0.05807 l 6.9253,4.40698 h 2.848 c 0.9205,0 1.6667,0.7462 1.6667,1.6667 v 14.9999 c 0,0.9205 -0.7462,1.6667 -1.6667,1.6667 h -2.5328 c 0.0992,1.5788 -0.6447,3.1838 -2.141,4.0817 l -8.489,5.0935 c -1.0717,0.6428 -2.402,0.6278 -3.4512,-0.0127 -1.1671,1.0322 -2.9638,1.1458 -4.2672,0.1217 l -8.568,-6.732 C 9.27377,33.7152 8.95075,32.0005 9.6103,30.6412 8.80478,30.0095 8.33398,29.0423 8.33398,28.0182 V 15.5 c 0,-0.9205 0.7462,-1.6667 1.66672,-1.6667 h 8.2448 z M 11.9551,28.242 13.1084,27.2328 c 2.0504,-1.7941 5.1596,-1.6165 6.9923,0.3995 l 4.5036,4.954 c 1.4492,1.5942 1.7135,3.9362 0.6595,5.812 l 8.3477,-5.0085 c 0.469,-0.2813 0.6387,-0.8438 0.4638,-1.3176 L 26.6968,21.7425 C 26.2823,21.1623 25.5447,20.91 24.8617,21.1149 l -4.1421,1.2426 c -1.7619,0.5285 -3.6716,0.047 -4.9723,-1.2536 L 15.2594,20.616 C 14.3127,19.6693 14.0679,18.322 14.4662,17.1667 H 11.6673 V 28.0182 Z M 28.4375,12.2384 c -0.5568,-0.3543 -1.2702,-0.3467 -1.8193,0.0194 l -9.0018,6.0012 0.4879,0.4879 c 0.4336,0.4336 1.0702,0.594 1.6575,0.4179 l 4.142,-1.2427 c 2.049,-0.6147 4.2622,0.1422 5.5055,1.883 l 6.4487,9.0281 h 2.4757 V 17.1666 h -1.1814 c -0.634,0 -1.2548,-0.1808 -1.7896,-0.5211 z m -13.134,17.5029 -2.693,2.3564 8.568,6.732 1.1732,-2.0532 c 0.3583,-0.627 0.272,-1.4135 -0.2139,-1.948 l -4.5036,-4.954 c -0.6109,-0.672 -1.6473,-0.7312 -2.3307,-0.1332 z"
       fill="#23f399"
       id="path1" />
  </g>
  <defs
     id="defs3">
    <filter
       id="filter0_d_6431_1852"
       x="0"
       y="-2.5"
       width="56"
       height="56"
       filterUnits="userSpaceOnUse"
       color-interpolation-filters="sRGB">
      <feFlood
         flood-opacity="0"
         result="BackgroundImageFix"
         id="feFlood1" />
      <feColorMatrix
         in="SourceAlpha"
         type="matrix"
         values="0 0 0 0 0 0 0 0 0 0 0 0 0 0 0 0 0 0 127 0"
         result="hardAlpha"
         id="feColorMatrix1" />
      <feOffset
         id="feOffset1" />
      <feGaussianBlur
         stdDeviation="4"
         id="feGaussianBlur1" />
      <feComposite
         in2="hardAlpha"
         operator="out"
         id="feComposite1" />
      <feColorMatrix
         type="matrix"
         values="0 0 0 0 0.137255 0 0 0 0 0.952941 0 0 0 0 0.6 0 0 0 0.3 0"
         id="feColorMatrix2" />
      <feBlend
         mode="normal"
         in2="BackgroundImageFix"
         result="effect1_dropShadow_6431_1852"
         id="feBlend2" />
      <feBlend
         mode="normal"
         in="SourceGraphic"
         in2="effect1_dropShadow_6431_1852"
         result="shape"
         id="feBlend3" />
    </filter>
  </defs>
</svg>
