<?xml version="1.0" encoding="UTF-8" standalone="no"?>
<svg
   width="37.501286"
   height="34.16758"
   viewBox="0 0 37.501286 34.16758"
   fill="none"
   version="1.1"
   id="svg3"
   sodipodi:docname="Google-Ads--Streamline-Svg-Logos.svg"
   xmlns:inkscape="http://www.inkscape.org/namespaces/inkscape"
   xmlns:sodipodi="http://sodipodi.sourceforge.net/DTD/sodipodi-0.dtd"
   xmlns="http://www.w3.org/2000/svg"
   xmlns:svg="http://www.w3.org/2000/svg">
  <sodipodi:namedview
     id="namedview3"
     pagecolor="#ffffff"
     bordercolor="#000000"
     borderopacity="0.25"
     inkscape:showpageshadow="2"
     inkscape:pageopacity="0.0"
     inkscape:pagecheckerboard="0"
     inkscape:deskcolor="#d1d1d1">
    <inkscape:page
       x="0"
       y="0"
       width="37.501286"
       height="34.16758"
       id="page2"
       margin="0"
       bleed="0" />
  </sodipodi:namedview>
  <g
     filter="url(#filter0_d_6431_1899)"
     id="g1"
     transform="translate(-8.2499999,-8.9174823)">
    <path
       d="m 23.8164,9.68034 c 3.2947,-1.6403 7.1877,-0.54648 9.1641,2.42876 l 0.1914,0.3037 0.0068,0.0136 11.7891,20.3633 v 0.0117 c 1.7406,3.3018 0.4743,7.4489 -2.7422,9.335 l -0.0098,0.0068 -0.0107,0.0059 c -3.4686,1.9448 -7.7137,0.747 -9.6826,-2.5576 l -0.0079,-0.0137 -5.4375,-9.3936 -5.5253,9.502 -0.045,0.0596 c -0.1328,0.1762 -0.2867,0.3144 -0.4492,0.4248 -1.2882,1.7654 -3.3718,2.914 -5.7246,2.914 -3.9119,-1e-4 -7.083,-3.1721 -7.083,-7.0839 6e-5,-2.0106 0.83819,-3.825 2.1836,-5.1143 L 20.1162,14.238 c 0.4355,-1.7807 1.5828,-3.38 3.3731,-4.38383 z M 15.333,31.8346 c -0.9887,1e-4 -1.8969,0.3446 -2.6113,0.92 -0.8122,0.6542 -1.3742,1.6067 -1.5186,2.6914 -0.0241,0.1813 -0.0361,0.3667 -0.0361,0.5547 0,2.301 1.865,4.1668 4.166,4.1669 1.0536,0 2.0163,-0.3912 2.75,-1.0361 0.4628,-0.4068 0.8346,-0.9149 1.0811,-1.4892 C 19.3802,37.1385 19.5,36.5835 19.5,36.0007 19.4999,33.7715 17.7493,31.9512 15.5479,31.8395 Z M 30.665,13.904 c -1.129,-1.8955 -3.5139,-2.6274 -5.5527,-1.6114 l -0.1963,0.1045 c -0.7838,0.4396 -1.3622,1.0719 -1.708,1.8028 -0.2184,0.4617 -0.3437,0.9631 -0.3701,1.4795 -0.0038,0.0738 -0.0062,0.1482 -0.0059,0.2226 l 0.0098,0.2676 c 0.0437,0.6259 0.2324,1.2632 0.5771,1.8711 l 3.6641,6.3301 0.001,9e-4 0.9619,1.6612 6.9932,12.083 c 1.1677,1.939 3.656,2.6479 5.7275,1.4941 1.9734,-1.1692 2.6459,-3.7399 1.5195,-5.6299 L 42.0508,33.5866 V 33.5719 Z M 14.9463,28.9274 c 0.128,-0.0069 0.257,-0.0097 0.3867,-0.0098 l 0.3652,0.0088 c 2.8008,0.1422 5.1724,1.9112 6.1885,4.3809 l 3.5069,-6.0303 -4.4991,-7.7744 -0.0039,-0.0078 c -0.0778,-0.1365 -0.1494,-0.2751 -0.2177,-0.4141 z"
       fill="#23f399"
       id="path1" />
  </g>
  <defs
     id="defs3">
    <filter
       id="filter0_d_6431_1899"
       x="-1"
       y="-2"
       width="56"
       height="56"
       filterUnits="userSpaceOnUse"
       color-interpolation-filters="sRGB">
      <feFlood
         flood-opacity="0"
         result="BackgroundImageFix"
         id="feFlood1" />
      <feColorMatrix
         in="SourceAlpha"
         type="matrix"
         values="0 0 0 0 0 0 0 0 0 0 0 0 0 0 0 0 0 0 127 0"
         result="hardAlpha"
         id="feColorMatrix1" />
      <feOffset
         id="feOffset1" />
      <feGaussianBlur
         stdDeviation="4"
         id="feGaussianBlur1" />
      <feComposite
         in2="hardAlpha"
         operator="out"
         id="feComposite1" />
      <feColorMatrix
         type="matrix"
         values="0 0 0 0 0.137255 0 0 0 0 0.952941 0 0 0 0 0.6 0 0 0 0.3 0"
         id="feColorMatrix2" />
      <feBlend
         mode="normal"
         in2="BackgroundImageFix"
         result="effect1_dropShadow_6431_1899"
         id="feBlend2" />
      <feBlend
         mode="normal"
         in="SourceGraphic"
         in2="effect1_dropShadow_6431_1899"
         result="shape"
         id="feBlend3" />
    </filter>
  </defs>
</svg>
