<?xml version="1.0" encoding="UTF-8" standalone="no"?>
<svg
   width="38"
   height="36"
   viewBox="0 0 38 36"
   fill="none"
   version="1.1"
   id="svg1"
   sodipodi:docname="g_ads.svg"
   inkscape:version="1.4 (86a8ad7, 2024-10-11)"
   xmlns:inkscape="http://www.inkscape.org/namespaces/inkscape"
   xmlns:sodipodi="http://sodipodi.sourceforge.net/DTD/sodipodi-0.dtd"
   xmlns="http://www.w3.org/2000/svg"
   xmlns:svg="http://www.w3.org/2000/svg">
  <defs
     id="defs1" />
  <sodipodi:namedview
     id="namedview1"
     pagecolor="#ffffff"
     bordercolor="#000000"
     borderopacity="0.25"
     inkscape:showpageshadow="2"
     inkscape:pageopacity="0.0"
     inkscape:pagecheckerboard="0"
     inkscape:deskcolor="#d1d1d1"
     inkscape:zoom="28.972222"
     inkscape:cx="18.983701"
     inkscape:cy="18"
     inkscape:window-width="2400"
     inkscape:window-height="1261"
     inkscape:window-x="-9"
     inkscape:window-y="-9"
     inkscape:window-maximized="1"
     inkscape:current-layer="svg1" />
  <path
     d="M15.8164 1.68034C19.1111 0.0400385 23.0041 1.13386 24.9805 4.10905L25.1719 4.41277L25.1787 4.42644L36.9678 24.7897V24.8014C38.7084 28.1032 37.4421 32.2503 34.2256 34.1364L34.2158 34.1432L34.2051 34.1491C30.7365 36.0939 26.4914 34.8961 24.5225 31.5915L24.5146 31.5778L19.0771 22.1842L13.5518 31.6862L13.5068 31.7458C13.374 31.922 13.2201 32.0602 13.0576 32.1706C11.7694 33.936 9.68576 35.0846 7.33301 35.0846C3.42114 35.0845 0.25 31.9125 0.25 28.0007C0.250055 25.9901 1.08819 24.1757 2.43359 22.8864L12.1162 6.23796C12.5517 4.45726 13.699 2.85803 15.4893 1.85417L15.8164 1.68034ZM7.33301 23.8346C6.3443 23.8347 5.43609 24.1792 4.72168 24.7546C3.90947 25.4088 3.34746 26.3613 3.20312 27.446C3.17901 27.6273 3.167 27.8127 3.16699 28.0007C3.16699 30.3017 5.03197 32.1675 7.33301 32.1676C8.38656 32.1676 9.34932 31.7764 10.083 31.1315C10.5458 30.7247 10.9176 30.2166 11.1641 29.6423C11.3802 29.1385 11.5 28.5835 11.5 28.0007C11.4999 25.7715 9.74927 23.9512 7.54785 23.8395L7.33301 23.8346ZM22.665 5.90398C21.536 4.0085 19.1511 3.27659 17.1123 4.29265L16.916 4.39714C16.1322 4.83666 15.5538 5.46903 15.208 6.19988C14.9896 6.66157 14.8643 7.16298 14.8379 7.67937C14.8341 7.7532 14.8317 7.82763 14.832 7.90202L14.8418 8.1696C14.8855 8.79549 15.0742 9.43279 15.4189 10.0407L19.083 16.3708L19.084 16.3717L20.0459 18.0329L27.0391 30.1159C28.2068 32.0549 30.6951 32.7638 32.7666 31.61C34.74 30.4408 35.4125 27.8701 34.2861 25.9801L34.0508 25.5866V25.5719L22.665 5.90398ZM6.94629 20.9274C7.07431 20.9205 7.20327 20.9177 7.33301 20.9176L7.69824 20.9264C10.499 21.0686 12.8706 22.8376 13.8867 25.3073L17.3936 19.277L12.8945 11.5026L12.8906 11.4948C12.8128 11.3583 12.7412 11.2197 12.6729 11.0807L6.94629 20.9274Z"
     fill="#23F399"
     id="path1" />
</svg>
