<?xml version="1.0" encoding="UTF-8" standalone="no"?>
<svg
   width="56"
   height="56"
   viewBox="0 0 56 56"
   fill="none"
   version="1.1"
   id="svg3"
   sodipodi:docname="Price-Tag-3-Line--Streamline-Remix.svg"
   xmlns:inkscape="http://www.inkscape.org/namespaces/inkscape"
   xmlns:sodipodi="http://sodipodi.sourceforge.net/DTD/sodipodi-0.dtd"
   xmlns="http://www.w3.org/2000/svg"
   xmlns:svg="http://www.w3.org/2000/svg">
  <sodipodi:namedview
     id="namedview3"
     pagecolor="#ffffff"
     bordercolor="#000000"
     borderopacity="0.25"
     inkscape:showpageshadow="2"
     inkscape:pageopacity="0.0"
     inkscape:pagecheckerboard="0"
     inkscape:deskcolor="#d1d1d1">
    <inkscape:page
       x="0"
       y="0"
       width="56"
       height="56"
       id="page2"
       margin="0"
       bleed="0" />
  </sodipodi:namedview>
  <g
     filter="url(#filter0_d_6431_1934)"
     id="g1"
     transform="translate(2,3)">
    <path
       d="m 24.1733,8.50098 16.4991,2.35702 2.357,16.4992 -15.3206,15.3205 c -0.6509,0.651 -1.706,0.651 -2.357,0 L 8.85266,26.1787 c -0.65088,-0.651 -0.65088,-1.7061 0,-2.3571 z M 25.3518,12.0365 12.3882,25.0001 26.5303,39.1422 39.4939,26.1787 37.7263,13.8043 Z m 3.5356,10.6066 c -1.3018,-1.3017 -1.3018,-3.4123 0,-4.714 1.3017,-1.3018 3.4122,-1.3018 4.714,0 1.3017,1.3017 1.3017,3.4123 0,4.714 -1.3018,1.3018 -3.4123,1.3018 -4.714,0 z"
       fill="#23f399"
       id="path1" />
  </g>
  <defs
     id="defs3">
    <filter
       id="filter0_d_6431_1934"
       x="-2"
       y="-3"
       width="56"
       height="56"
       filterUnits="userSpaceOnUse"
       color-interpolation-filters="sRGB">
      <feFlood
         flood-opacity="0"
         result="BackgroundImageFix"
         id="feFlood1" />
      <feColorMatrix
         in="SourceAlpha"
         type="matrix"
         values="0 0 0 0 0 0 0 0 0 0 0 0 0 0 0 0 0 0 127 0"
         result="hardAlpha"
         id="feColorMatrix1" />
      <feOffset
         id="feOffset1" />
      <feGaussianBlur
         stdDeviation="4"
         id="feGaussianBlur1" />
      <feComposite
         in2="hardAlpha"
         operator="out"
         id="feComposite1" />
      <feColorMatrix
         type="matrix"
         values="0 0 0 0 0.137255 0 0 0 0 0.952941 0 0 0 0 0.6 0 0 0 0.3 0"
         id="feColorMatrix2" />
      <feBlend
         mode="normal"
         in2="BackgroundImageFix"
         result="effect1_dropShadow_6431_1934"
         id="feBlend2" />
      <feBlend
         mode="normal"
         in="SourceGraphic"
         in2="effect1_dropShadow_6431_1934"
         result="shape"
         id="feBlend3" />
    </filter>
  </defs>
</svg>
