<svg width="240" height="123" viewBox="0 0 240 123" fill="none" xmlns="http://www.w3.org/2000/svg">
<path d="M6.2045 71.1377H13.0035V104.475H6.2045V71.1377Z" fill="#E3E7E8"/>
<path d="M16.947 93.0546C16.9425 90.6601 17.6485 88.318 18.9756 86.3248C20.3027 84.3316 22.1912 82.7768 24.4022 81.8574C26.6131 80.938 29.0472 80.6951 31.3963 81.1595C33.7454 81.6239 35.904 82.7747 37.5986 84.4664C39.2935 86.158 40.4484 88.3144 40.9171 90.6625C41.3861 93.0107 41.1477 95.4452 40.2324 97.658C39.317 99.8706 37.7659 101.762 35.7751 103.093C33.7845 104.424 31.4438 105.134 29.0493 105.134C27.4567 105.152 25.8768 104.853 24.4017 104.252C22.9268 103.652 21.5864 102.763 20.4592 101.638C19.3321 100.513 18.4409 99.1744 17.8378 97.7003C17.2347 96.2264 16.9318 94.647 16.947 93.0546ZM34.307 93.0546C34.2804 92.0209 33.9494 91.018 33.3557 90.1715C32.7619 89.3248 31.9317 88.6722 30.9689 88.2949C30.006 87.9176 28.9533 87.8329 27.9427 88.0508C26.9318 88.2688 26.0078 88.78 25.2859 89.5204C24.5642 90.2608 24.0768 91.1977 23.8846 92.2139C23.6925 93.2298 23.8043 94.28 24.2059 95.2328C24.6077 96.1856 25.2813 96.999 26.1427 97.5709C27.0043 98.1428 28.0152 98.4481 29.0493 98.4484C29.7566 98.4683 30.4605 98.3413 31.1165 98.0754C31.7724 97.8095 32.3661 97.4106 32.8603 96.9037C33.3542 96.3968 33.738 95.7932 33.9869 95.1308C34.236 94.4682 34.3449 93.7614 34.307 93.0546Z" fill="#E3E7E8"/>
<path d="M68.4828 81.6338V103.345C68.4828 111.028 62.477 114.269 56.4033 114.269C54.2676 114.428 52.1292 113.996 50.2224 113.02C48.3156 112.045 46.7141 110.564 45.593 108.739L51.4402 105.362C51.9041 106.297 52.6382 107.072 53.5474 107.585C54.4565 108.098 55.4988 108.327 56.5394 108.24C57.2239 108.355 57.9257 108.31 58.5905 108.11C59.2553 107.91 59.8651 107.56 60.3732 107.087C60.881 106.614 61.2737 106.03 61.5206 105.382C61.7676 104.733 61.8622 104.036 61.7971 103.345V101.237C60.9979 102.221 59.9779 103.002 58.8204 103.518C57.6629 104.034 56.4 104.27 55.1342 104.206C52.0567 104.206 49.1054 102.984 46.9291 100.808C44.753 98.6318 43.5305 95.6803 43.5305 92.6027C43.5305 89.5252 44.753 86.5739 46.9291 84.3979C49.1054 82.2218 52.0567 80.9992 55.1342 80.9992C56.3993 80.9414 57.6602 81.1797 58.817 81.695C59.9738 82.2105 60.9943 82.9888 61.7971 83.968V81.7017L68.4828 81.6338ZM61.7971 92.6027C61.8425 91.5007 61.5569 90.4101 60.9775 89.4712C60.3979 88.5326 59.5509 87.7886 58.5454 87.3352C57.5398 86.8816 56.4214 86.7393 55.3342 86.9265C54.247 87.1135 53.2406 87.6215 52.4445 88.385C51.6482 89.1487 51.0986 90.1329 50.8663 91.2112C50.6338 92.2895 50.7293 93.413 51.1404 94.4366C51.5515 95.4604 52.2593 96.3376 53.173 96.9559C54.0866 97.5743 55.1642 97.9051 56.2673 97.906C56.9875 97.9569 57.7102 97.8566 58.3889 97.6111C59.0678 97.3655 59.6877 96.9808 60.2088 96.4811C60.7296 95.9815 61.1402 95.3781 61.4138 94.7102C61.6874 94.0423 61.818 93.3244 61.7971 92.6027Z" fill="#E3E7E8"/>
<path d="M72.4037 93.0546C72.3991 90.6601 73.1052 88.318 74.4322 86.3248C75.7594 84.3316 77.6479 82.7768 79.8588 81.8574C82.0697 80.938 84.5038 80.6951 86.8529 81.1595C89.202 81.6239 91.3606 82.7747 93.0554 84.4664C94.7501 86.158 95.905 88.3144 96.3739 90.6625C96.8426 93.0107 96.6043 95.4452 95.689 97.658C94.7736 99.8706 93.2225 101.762 91.2319 103.093C89.2411 104.424 86.9004 105.134 84.5059 105.134C82.9135 105.152 81.3334 104.853 79.8583 104.252C78.3833 103.652 77.0429 102.763 75.9158 101.638C74.7888 100.513 73.8974 99.1744 73.2943 97.7003C72.6912 96.2264 72.3883 94.647 72.4037 93.0546ZM89.7638 93.0546C89.737 92.0209 89.406 91.018 88.8122 90.1715C88.2185 89.3248 87.3883 88.6722 86.4254 88.2949C85.4628 87.9176 84.4102 87.8329 83.3993 88.0508C82.3884 88.2688 81.4644 88.78 80.7425 89.5204C80.0208 90.2608 79.5334 91.1977 79.3411 92.2139C79.1491 93.2298 79.261 94.28 79.6625 95.2328C80.0642 96.1856 80.7379 96.999 81.5993 97.5709C82.4609 98.1428 83.4718 98.4481 84.5059 98.4484C85.2096 98.4618 85.9085 98.3303 86.5591 98.0615C87.2095 97.7927 87.7978 97.3928 88.2869 96.8867C88.776 96.3808 89.1554 95.7791 89.4019 95.1198C89.6482 94.4605 89.7559 93.7573 89.7185 93.0546H89.7638Z" fill="#E3E7E8"/>
<path d="M99.7588 75.5153C99.7588 74.6996 100.001 73.902 100.454 73.2238C100.907 72.5456 101.551 72.0168 102.305 71.7046C103.059 71.3924 103.888 71.3108 104.688 71.4699C105.488 71.629 106.223 72.0219 106.8 72.5986C107.377 73.1756 107.77 73.9104 107.929 74.7106C108.088 75.5108 108.006 76.3402 107.694 77.0938C107.382 77.8474 106.853 78.4918 106.175 78.9449C105.497 79.398 104.699 79.64 103.883 79.64C102.791 79.6342 101.746 79.1976 100.973 78.4253C100.201 77.6532 99.7648 76.6076 99.7588 75.5153ZM100.461 81.6344H107.26V104.479H100.461V81.6344Z" fill="#E3E7E8"/>
<path d="M136.903 93.0527C136.986 94.5627 136.769 96.0743 136.265 97.5001C135.761 98.9259 134.98 100.238 133.966 101.361C132.953 102.483 131.728 103.395 130.361 104.042C128.994 104.689 127.513 105.06 126.002 105.132C124.734 105.193 123.468 104.975 122.293 104.493C121.119 104.012 120.064 103.278 119.203 102.345V113.676H112.404V81.6303H119.203V83.7834C120.064 82.8498 121.119 82.1163 122.293 81.6347C123.468 81.153 124.734 80.9351 126.002 80.9958C127.511 81.0683 128.99 81.4381 130.356 82.0839C131.721 82.73 132.945 83.6392 133.958 84.7595C134.971 85.8798 135.752 87.189 136.258 88.6122C136.764 90.0354 136.983 91.5445 136.903 93.0527ZM130.104 93.0527C130.078 91.989 129.739 90.9565 129.131 90.0831C128.523 89.21 127.673 88.5339 126.685 88.1394C125.697 87.7446 124.614 87.6483 123.572 87.8627C122.53 88.0767 121.573 88.592 120.821 89.3444C120.068 90.0968 119.553 91.0532 119.339 92.0955C119.125 93.1379 119.221 94.22 119.616 95.2081C120.011 96.1962 120.686 97.047 121.56 97.6547C122.433 98.2626 123.466 98.601 124.529 98.6279C125.272 98.6751 126.015 98.5628 126.711 98.2988C127.406 98.0346 128.037 97.6247 128.561 97.0967C129.084 96.5684 129.489 95.9343 129.748 95.2369C130.006 94.5395 130.112 93.7947 130.059 93.0527H130.104Z" fill="#E3E7E8"/>
<path d="M158.071 97.6311C158.071 102.889 153.539 105.133 148.553 105.133C146.561 105.309 144.562 104.885 142.813 103.916C141.064 102.946 139.645 101.476 138.739 99.6934L144.677 96.3166C144.918 97.141 145.434 97.8581 146.139 98.3487C146.844 98.8393 147.696 99.074 148.553 99.0135C150.207 99.0135 151.023 98.4922 151.023 97.5857C151.023 95.0701 139.691 96.4073 139.691 88.5205C139.691 83.5345 143.907 81.0188 148.757 81.0188C150.546 80.9645 152.318 81.3896 153.888 82.2505C155.458 83.1111 156.769 84.3761 157.686 85.9141L151.726 89.0417C151.462 88.4432 151.031 87.9339 150.484 87.5758C149.936 87.2177 149.297 87.0262 148.643 87.0245C147.465 87.0245 146.74 87.4779 146.74 88.3165C146.83 90.9226 158.071 89.1776 158.071 97.6311Z" fill="#E3E7E8"/>
<path d="M183.092 81.6328V104.477H176.292V102.347C175.502 103.294 174.498 104.04 173.363 104.524C172.229 105.009 170.996 105.218 169.765 105.135C165.233 105.135 161.221 101.848 161.221 95.6615V81.6328H168.02V94.6643C167.96 95.2197 168.025 95.7813 168.21 96.3086C168.394 96.8359 168.693 97.3154 169.086 97.7126C169.479 98.1098 169.955 98.4143 170.48 98.6044C171.005 98.7947 171.566 98.8653 172.122 98.8118C174.615 98.8118 176.36 97.3612 176.36 94.1205V81.6328H183.092Z" fill="#E3E7E8"/>
<path d="M222.389 90.4719V104.478H215.59V91.0614C215.59 88.795 214.48 87.2991 212.304 87.2991C210.128 87.2991 208.723 88.9083 208.723 91.6052V104.478H201.924V91.0614C201.924 88.795 200.836 87.2991 198.638 87.2991C196.44 87.2991 195.08 88.9083 195.08 91.6052V104.478H188.281V81.6334H195.08V83.7411C195.791 82.8102 196.723 82.0717 197.791 81.5929C198.86 81.1138 200.031 80.9096 201.199 80.9989C202.372 80.9418 203.539 81.1897 204.588 81.7177C205.636 82.2459 206.53 83.0367 207.182 84.013C207.941 82.9923 208.946 82.1804 210.103 81.6534C211.26 81.1263 212.532 80.901 213.8 80.9989C218.967 80.9989 222.389 84.7609 222.389 90.4719Z" fill="#E3E7E8"/>
<path d="M228.192 81.497C230.995 81.497 233.268 79.2239 233.268 76.4202C233.268 73.6166 230.995 71.3438 228.192 71.3438C225.388 71.3438 223.115 73.6166 223.115 76.4202C223.115 79.2239 225.388 81.497 228.192 81.497Z" fill="#E3E7E8"/>
<path d="M83.1464 53.8475C96.2763 53.8475 106.92 43.2035 106.92 30.0736C106.92 16.9437 96.2763 6.2998 83.1464 6.2998C70.0165 6.2998 59.3725 16.9437 59.3725 30.0736C59.3725 43.2035 70.0165 53.8475 83.1464 53.8475Z" fill="#E3E7E8"/>
<path d="M136.291 53.8475C149.421 53.8475 160.065 43.2035 160.065 30.0736C160.065 16.9437 149.421 6.2998 136.291 6.2998C123.162 6.2998 112.518 16.9437 112.518 30.0736C112.518 43.2035 123.162 53.8475 136.291 53.8475Z" fill="#E3E7E8"/>
<path d="M53.7745 6.2998H6.2496V53.8247H53.7745V6.2998Z" fill="#E3E7E8"/>
</svg>
